<?xml version="1.0" standalone="no"?>
<!DOCTYPE svg PUBLIC "-//W3C//DTD SVG 20010904//EN"
 "http://www.w3.org/TR/2001/REC-SVG-20010904/DTD/svg10.dtd">
<svg version="1.0" xmlns="http://www.w3.org/2000/svg"
 width="1000.000000pt" height="1000.000000pt" viewBox="0 0 1000.000000 1000.000000"
 preserveAspectRatio="xMidYMid meet">
<metadata>
Created by potrace 1.11, written by Peter Selinger 2001-2013
</metadata>
<g transform="translate(0.000000,1000.000000) scale(0.100000,-0.100000)"
fill="#000000" stroke="none">
<path d="M9861 9449 c-1 -20 -4 -39 -8 -43 -4 -4 -8 -16 -8 -26 0 -11 -4 -19
-10 -17 -5 1 -9 12 -7 25 2 14 -2 22 -13 22 -9 0 -18 7 -21 15 -9 23 -22 8
-16 -20 6 -33 -15 -60 -35 -43 -12 10 -13 7 -8 -18 l6 -29 -20 24 c-12 13 -21
31 -21 42 0 22 -17 34 -23 17 -3 -10 -8 -9 -22 2 -17 14 -18 13 -13 -10 3 -14
7 -32 9 -40 3 -11 -3 -14 -21 -12 -14 1 -27 7 -29 13 -1 5 -15 21 -30 35 -36
34 -40 8 -7 -41 35 -51 33 -66 -3 -26 -16 18 -34 30 -40 27 -6 -4 -17 8 -25
26 -14 33 -14 33 -15 6 -1 -15 4 -30 9 -33 8 -5 7 -11 -1 -21 -18 -21 -26 -9
-26 40 -2 84 -28 91 -38 10 -5 -42 -10 -54 -21 -50 -11 4 -14 -6 -14 -50 0
-36 -4 -54 -11 -52 -13 4 -39 74 -39 106 0 12 -4 22 -10 22 -5 0 -10 -9 -10
-20 0 -19 -36 -47 -54 -42 -18 6 -66 -21 -67 -37 0 -10 -4 -8 -10 7 -5 13 -7
28 -3 33 3 5 2 15 -2 21 -6 9 -10 5 -14 -12 -5 -18 -12 -24 -28 -23 -15 2 -22
-3 -23 -15 -1 -9 -3 -24 -4 -32 -1 -8 -3 -21 -4 -28 -2 -20 -21 -3 -21 19 0
11 -4 18 -9 15 -4 -3 -19 8 -31 24 -12 16 -26 27 -31 24 -5 -3 -18 10 -29 28
-24 39 -28 13 -5 -32 13 -25 13 -29 0 -34 -8 -3 -15 -12 -15 -21 0 -25 -19
-17 -37 18 l-17 32 -6 -29 c-3 -16 -11 -31 -18 -34 -9 -3 -11 3 -7 21 4 14 3
33 -3 43 -8 14 -12 9 -27 -29 -10 -27 -15 -57 -11 -72 4 -14 2 -25 -3 -25 -11
0 -27 65 -23 90 2 13 1 13 -7 1 -8 -12 -12 -12 -25 -2 -19 16 -20 9 -5 -42 16
-59 5 -75 -26 -39 -14 17 -25 38 -26 48 0 11 -3 14 -5 7 -3 -7 -12 -9 -20 -6
-8 3 -14 2 -14 -2 0 -9 21 -49 30 -55 13 -10 40 -55 40 -67 0 -20 -21 -15 -27
6 -3 11 -11 22 -19 25 -17 7 -57 84 -49 97 4 5 -6 24 -21 42 l-27 32 6 -30 c7
-39 -4 -58 -28 -49 -16 7 -17 2 -10 -71 8 -89 -4 -94 -30 -12 -9 28 -19 58
-21 66 -9 28 -32 -22 -27 -59 l5 -35 -20 24 c-11 14 -25 42 -31 63 -15 49 -34
51 -25 2 5 -28 4 -36 -7 -32 -7 2 -16 15 -20 29 -4 15 -6 4 -6 -30 0 -39 -4
-57 -16 -66 -22 -16 -22 -35 1 -35 16 -1 16 -1 -1 -11 -13 -8 -24 -7 -41 5
-17 11 -26 12 -35 3 -8 -8 -11 -8 -11 1 0 7 -5 12 -11 12 -6 0 -8 -7 -5 -16 5
-14 4 -15 -8 -5 -11 9 -15 8 -20 -4 -7 -19 -24 -11 -37 19 -8 19 -9 18 -6 -6
5 -34 -3 -36 -22 -6 -13 21 -14 21 -27 4 -8 -11 -11 -30 -7 -47 8 -42 -5 -36
-23 11 -20 50 -34 51 -34 4 0 -31 -2 -35 -15 -24 -8 7 -15 19 -15 26 0 8 -4
14 -10 14 -13 0 -13 -17 0 -25 5 -3 7 -12 3 -21 -5 -13 -8 -13 -24 2 -11 9
-19 23 -19 31 0 7 -4 13 -9 13 -20 0 -21 -20 -4 -47 9 -15 13 -25 8 -21 -13
12 -35 -12 -35 -41 -1 -25 -1 -25 -15 -7 -19 25 -28 16 -16 -17 5 -14 7 -28 4
-31 -12 -12 -24 -5 -33 20 -6 14 -14 23 -19 20 -4 -3 -19 3 -31 14 -13 11 -31
20 -40 20 -16 0 -16 -4 -3 -56 8 -31 12 -59 8 -62 -10 -10 -45 37 -45 60 0 23
-17 58 -29 58 -4 0 -6 -13 -3 -30 5 -32 -5 -38 -28 -17 -7 6 -4 -1 8 -17 25
-33 23 -42 -7 -27 -74 38 -70 38 -63 5 5 -26 4 -26 -39 -19 l-44 7 28 -25 c26
-25 35 -47 19 -47 -17 0 -62 25 -62 35 0 6 -15 10 -34 11 -30 0 -34 -2 -32
-23 2 -13 6 -26 9 -30 4 -3 7 -13 7 -22 -1 -11 -8 -7 -24 13 -23 28 -46 29
-46 1 0 -8 10 -21 22 -29 33 -23 11 -42 -32 -27 -39 13 -50 8 -50 -24 0 -23
-2 -24 -50 -18 -31 4 -50 2 -50 -4 0 -6 9 -13 20 -16 21 -5 28 -37 9 -37 -6 0
-23 9 -37 21 -31 24 -41 10 -18 -26 9 -13 16 -27 16 -30 0 -10 -36 -5 -49 8
-11 10 -12 8 -6 -11 7 -23 7 -23 -30 -7 -47 19 -45 19 -45 -5 0 -11 7 -20 15
-20 8 0 15 -6 15 -14 0 -11 -14 -14 -66 -11 -55 2 -64 1 -60 -12 9 -23 -4 -36
-21 -22 -19 16 -36 -6 -28 -37 5 -25 -14 -37 -36 -23 -8 5 -17 9 -21 9 -13 0
-9 -28 5 -33 6 -3 -8 -2 -33 0 l-45 6 23 -22 c12 -12 22 -28 22 -37 0 -8 7
-17 15 -20 16 -7 21 -44 5 -44 -5 0 -14 8 -19 19 -10 19 -51 36 -51 21 0 -4
12 -15 26 -25 14 -9 24 -19 21 -21 -5 -5 -125 13 -154 23 -15 5 -16 3 -5 -8
14 -15 15 -38 3 -58 -8 -12 -13 -12 -24 -3 -8 7 -22 10 -31 6 -19 -7 -21 -24
-3 -24 8 0 22 -9 32 -20 18 -20 17 -20 -13 -20 -45 0 -39 -19 8 -26 22 -4 40
-12 40 -19 0 -7 -11 -10 -29 -7 -19 3 -39 -3 -58 -18 -25 -18 -33 -20 -56 -9
-21 10 -30 9 -43 -2 -14 -12 -14 -14 2 -26 13 -9 18 -23 16 -43 -2 -18 1 -30
8 -30 6 0 8 -5 5 -10 -8 -13 -36 7 -34 24 3 28 -3 34 -33 33 -40 -2 -51 -27
-12 -27 49 0 15 -13 -48 -19 -5 -1 -8 -6 -8 -11 0 -6 11 -8 26 -4 20 5 25 3
22 -7 -3 -8 -11 -14 -19 -14 -8 -1 -25 -7 -38 -14 -13 -7 -35 -11 -50 -8 -14
2 -44 -1 -66 -8 -22 -7 -33 -13 -24 -14 9 -1 22 -8 30 -17 11 -13 10 -21 -6
-50 -14 -26 -24 -34 -47 -34 -15 0 -28 -3 -28 -6 0 -13 35 -33 58 -34 12 0 22
-5 22 -11 0 -6 -14 -9 -32 -7 -27 2 -33 0 -33 -17 0 -20 -24 -29 -26 -10 -1
17 -26 25 -51 16 -23 -10 -23 -10 5 -10 15 -1 27 -5 27 -10 0 -15 -23 -26 -47
-22 -14 1 -23 -3 -23 -11 0 -8 -19 -24 -42 -35 -40 -20 -41 -21 -14 -20 23 2
29 -3 32 -20 3 -16 -1 -23 -12 -23 -8 0 -12 5 -9 10 10 16 -4 11 -27 -9 l-20
-20 23 6 24 6 -23 -26 -24 -25 24 -4 c19 -3 17 -6 -17 -17 -22 -7 -47 -20 -56
-28 -9 -7 -28 -12 -42 -9 -14 2 -34 -2 -44 -9 -16 -13 -14 -13 15 -5 27 7 32
7 23 -4 -6 -7 -7 -17 -3 -21 4 -5 -1 -6 -10 -2 -9 3 -19 0 -22 -9 -3 -8 -12
-14 -19 -14 -8 0 -27 -16 -42 -35 l-27 -36 29 6 c22 5 18 1 -17 -18 -26 -14
-44 -31 -44 -40 1 -9 -11 -21 -27 -28 -16 -6 -29 -15 -29 -20 0 -8 32 -14 54
-10 5 1 3 -5 -4 -14 -8 -9 -22 -14 -32 -12 -21 6 -51 -20 -42 -35 3 -5 16 -7
28 -5 20 5 20 5 2 -6 -11 -7 -34 -24 -52 -40 -31 -27 -32 -27 -27 -5 6 22 5
22 -13 5 -10 -10 -28 -25 -39 -33 -19 -15 -19 -15 8 -9 39 8 33 -11 -8 -25
-19 -6 -35 -16 -35 -21 0 -14 24 -11 46 6 10 8 28 14 39 15 15 0 17 -2 6 -9
-9 -6 -10 -11 -2 -15 6 -4 8 -13 4 -19 -4 -7 -8 -19 -8 -27 0 -8 -9 -16 -20
-17 -54 -4 -83 -27 -50 -39 22 -9 18 -19 -12 -33 -20 -9 -24 -15 -14 -21 20
-12 2 -33 -24 -28 -14 3 -26 -2 -34 -14 -6 -10 -21 -18 -34 -18 -12 0 -31 -7
-41 -15 -11 -8 -14 -15 -8 -15 18 0 15 -20 -4 -27 -9 -3 -27 -17 -40 -29 -12
-13 -28 -24 -34 -24 -5 0 -10 -4 -10 -10 0 -14 33 -13 48 2 9 9 12 9 12 -1 0
-9 9 -12 24 -9 26 5 47 -19 23 -26 -6 -2 -21 -7 -32 -11 l-20 -7 20 -9 c15 -7
12 -8 -12 -3 -43 7 -74 -13 -63 -41 10 -26 3 -38 -30 -55 -23 -12 -24 -14 -5
-21 18 -6 15 -9 -17 -23 -21 -9 -45 -16 -55 -16 -14 0 -12 -3 7 -13 21 -11 31
-11 68 4 23 10 42 14 42 10 0 -13 -59 -61 -74 -61 -7 0 -20 -8 -29 -18 -19
-21 -23 -42 -5 -24 14 14 44 16 52 3 9 -15 -5 -41 -21 -41 -12 0 -13 -3 -3
-15 6 -8 9 -19 5 -25 -3 -6 3 -10 16 -10 35 0 6 -26 -44 -38 -23 -6 -51 -18
-62 -26 -20 -15 -20 -15 3 -16 29 0 28 -13 -4 -36 -90 -66 -92 -70 -29 -80 50
-7 54 -13 25 -39 -11 -10 -20 -15 -20 -11 0 4 -13 -1 -29 -10 -17 -10 -28 -21
-25 -26 3 -4 2 -13 -2 -20 -4 -7 -8 -26 -8 -42 -1 -20 -8 -34 -22 -41 -11 -5
-19 -15 -17 -22 2 -6 -5 -17 -16 -23 -23 -12 -28 -35 -9 -46 6 -4 19 2 29 14
21 27 39 28 39 4 0 -10 -14 -23 -32 -31 -18 -8 -43 -21 -56 -29 -21 -14 -21
-15 -5 -28 25 -18 33 -17 33 5 0 18 45 39 57 27 12 -11 -9 -42 -38 -55 -21 -9
-28 -18 -24 -29 3 -8 -2 -23 -11 -33 -18 -20 -44 -25 -44 -9 0 6 -4 10 -10 10
-5 0 -10 -6 -10 -13 0 -8 -10 -19 -22 -26 -21 -10 -19 -11 15 -8 38 3 48 -5
24 -20 -20 -12 -29 -44 -17 -58 8 -9 4 -17 -14 -29 -14 -9 -32 -16 -40 -16
-15 0 -29 -27 -20 -41 3 -5 10 -9 15 -9 6 0 8 4 4 9 -3 5 -1 12 5 16 6 3 13
-1 16 -9 5 -13 9 -13 27 -2 23 15 107 19 107 6 0 -4 -19 -17 -42 -29 -32 -16
-44 -18 -50 -8 -6 9 -10 8 -18 -3 -19 -29 -12 -40 25 -35 43 5 46 -8 5 -25
-16 -7 -30 -16 -30 -21 0 -4 -20 -22 -45 -39 -43 -29 -59 -53 -33 -48 6 2 13
-5 15 -14 3 -11 -3 -18 -18 -20 -26 -3 -39 -28 -15 -28 29 0 17 -31 -29 -77
-36 -37 -43 -51 -39 -70 5 -17 1 -28 -12 -38 -26 -20 0 -19 30 1 13 8 27 26
30 40 6 24 29 35 24 11 -3 -13 3 -17 28 -17 10 0 14 5 10 15 -6 17 13 55 27
55 12 0 1 -56 -16 -81 -9 -12 -13 -28 -10 -36 3 -8 -4 -21 -16 -29 -23 -16
-29 -44 -9 -44 7 0 2 -7 -10 -16 -12 -8 -22 -24 -22 -34 0 -10 -12 -28 -26
-39 -19 -15 -22 -21 -11 -21 21 0 12 -27 -19 -58 -13 -13 -24 -28 -24 -35 0
-8 3 -9 8 -1 4 6 15 13 25 17 9 4 21 15 24 24 4 10 17 32 29 50 15 23 24 29
32 21 8 -8 15 -8 25 0 8 7 17 9 20 5 14 -13 6 -22 -24 -28 -23 -5 -35 -16 -45
-41 -8 -19 -18 -34 -23 -34 -14 0 -22 -31 -11 -44 7 -9 0 -16 -25 -26 -19 -8
-35 -20 -35 -27 0 -7 -13 -16 -30 -19 -16 -4 -30 -13 -30 -21 0 -11 4 -11 20
-3 11 6 25 8 30 5 15 -9 12 -43 -4 -52 -7 -4 -17 -19 -21 -33 -7 -22 -6 -23 9
-11 20 17 30 9 31 -26 0 -14 6 -28 13 -30 8 -3 12 7 12 30 0 30 3 34 20 30 12
-3 20 0 20 6 0 7 5 9 10 6 7 -4 1 -16 -15 -31 -14 -13 -23 -28 -20 -34 8 -13
-15 -88 -32 -101 -18 -16 -16 -29 4 -29 14 0 14 -2 -2 -20 -12 -13 -22 -17
-28 -11 -16 16 -37 0 -36 -28 l0 -26 10 25 c7 16 13 20 17 13 4 -7 21 -17 37
-23 23 -9 26 -13 15 -20 -8 -5 -23 -7 -32 -4 -11 3 -19 -2 -23 -16 -9 -29 1
-37 23 -17 19 18 42 23 42 10 0 -5 -9 -23 -20 -41 -26 -42 -26 -56 -1 -42 40
21 42 3 6 -44 -26 -34 -32 -61 -15 -71 6 -4 6 -15 0 -31 -7 -16 -6 -32 0 -44
7 -13 7 -21 -2 -26 -7 -5 -4 -10 11 -16 30 -11 44 -1 38 28 -2 15 3 33 14 45
10 12 21 29 24 39 3 9 17 22 30 28 14 6 25 16 25 21 0 5 12 12 28 16 15 3 36
13 47 21 17 13 18 16 5 25 -13 9 -13 12 3 22 123 81 227 169 227 193 0 9 5 14
12 12 11 -4 48 25 48 38 0 17 -107 -20 -125 -44 -6 -7 -26 -13 -45 -12 -19 1
-47 2 -62 2 -16 1 -28 4 -28 7 1 27 80 41 80 14 0 -8 3 -13 8 -11 4 2 36 18
72 35 36 17 82 44 103 61 21 17 47 34 58 37 10 4 19 11 19 16 0 5 6 9 14 9 12
0 26 20 26 36 0 5 -57 -34 -77 -53 -7 -6 -56 -33 -108 -59 -85 -42 -95 -45
-109 -31 -20 20 -20 27 -1 27 8 0 15 -5 15 -11 0 -11 59 31 59 44 1 4 -7 7
-16 8 -10 0 -4 5 12 10 19 5 31 5 33 -1 2 -6 8 -10 14 -10 7 0 6 5 -1 14 -15
18 1 30 42 32 16 1 38 11 50 22 35 32 98 59 154 67 53 7 108 34 71 35 -28 0
-21 19 10 25 15 4 46 11 68 17 23 5 51 7 62 3 12 -3 34 1 52 10 18 10 40 13
53 9 19 -6 19 -5 6 8 -13 14 -24 14 -83 3 -37 -7 -75 -11 -84 -8 -10 2 -52
-14 -95 -36 -42 -23 -88 -41 -101 -41 -12 0 -37 -7 -55 -16 -17 -8 -37 -13
-44 -11 -7 3 -5 6 6 6 20 1 23 17 5 24 -7 2 -9 8 -5 13 4 5 12 2 16 -5 12 -19
44 -10 56 16 7 17 15 21 33 16 19 -4 23 -2 20 12 -3 19 45 43 89 44 21 1 40
17 31 26 -2 3 -20 0 -38 -5 -22 -6 -38 -6 -44 0 -7 7 -6 10 3 10 7 0 11 8 9
18 -5 25 -132 18 -168 -10 -22 -17 -25 -18 -28 -4 -4 20 -16 20 -35 2 -10 -11
-17 -12 -25 -4 -8 8 -15 8 -24 1 -7 -6 -26 -13 -41 -15 -28 -5 -28 -5 13 33
23 22 47 39 53 39 8 0 7 -3 -2 -9 -9 -6 -10 -11 -2 -15 17 -11 112 19 155 47
21 15 47 27 57 27 10 0 47 18 82 39 35 21 92 47 125 57 34 10 62 22 62 26 0 4
7 8 16 8 8 0 12 5 9 10 -4 6 -12 10 -18 9 -26 -3 -38 1 -32 12 4 6 13 8 21 5
8 -3 23 7 36 24 12 17 27 30 32 30 6 0 20 7 31 16 19 14 16 15 -30 11 -41 -4
-51 -8 -53 -25 -2 -16 -10 -20 -35 -20 -38 0 -124 -19 -150 -33 -11 -6 -21 -8
-24 -5 -8 8 7 26 23 26 20 0 174 72 174 82 0 4 -8 5 -17 2 -10 -2 -2 3 17 12
19 9 42 20 51 25 9 4 26 5 37 2 12 -3 31 2 44 11 12 9 30 16 40 16 9 0 22 9
28 20 6 11 17 20 24 20 17 0 41 28 32 37 -3 4 -12 1 -18 -5 -7 -7 -24 -12 -38
-12 -31 0 -129 -45 -136 -63 -2 -6 -22 -13 -44 -14 -23 0 -47 -6 -54 -13 -8
-6 -27 -13 -43 -14 -15 -2 -31 -4 -35 -5 -3 0 -20 -12 -36 -26 -28 -23 -30
-24 -25 -5 5 18 3 19 -21 10 -38 -14 -42 -13 -21 10 10 11 22 20 27 20 5 0 22
10 38 22 22 16 32 18 43 10 10 -9 23 -6 55 9 41 21 55 39 30 39 -7 1 4 10 25
21 22 11 37 22 35 24 -8 8 -238 -50 -293 -75 -58 -26 -85 -33 -85 -22 0 13
120 69 164 78 20 3 39 10 42 15 3 5 20 9 38 9 22 0 42 9 62 28 27 27 65 52 78
52 3 0 6 -7 6 -15 0 -8 4 -15 9 -15 15 0 23 18 11 25 -5 3 -10 11 -10 16 0 6
5 7 10 4 6 -3 10 -1 10 5 0 7 -7 9 -16 6 -9 -3 -20 -3 -26 0 -5 4 9 15 33 25
46 21 64 18 33 -6 -19 -14 -18 -14 3 -15 12 0 25 5 28 10 3 6 14 10 25 10 15
0 31 19 34 41 2 15 37 39 55 39 12 0 21 6 21 13 0 20 -75 7 -130 -22 -23 -12
-48 -20 -55 -17 -7 2 -17 0 -21 -4 -5 -5 -18 -11 -29 -13 -11 -2 -30 -9 -43
-16 -25 -13 -111 -41 -127 -41 -5 1 -2 7 9 15 10 7 15 18 11 24 -3 6 -1 11 4
11 6 0 11 -4 11 -10 0 -11 16 -6 77 21 24 10 48 19 55 19 17 0 120 39 134 51
6 5 14 6 17 2 8 -7 57 36 57 49 0 12 -40 -1 -58 -18 -20 -21 -152 -23 -152 -3
0 12 40 18 40 6 0 -7 7 -4 14 6 7 9 19 17 27 17 8 0 29 9 48 21 25 15 36 17
41 8 4 -6 13 -8 19 -5 15 9 14 46 -1 46 -6 0 -8 3 -4 7 4 5 12 8 17 8 18 0 12
20 -7 24 -10 2 -22 8 -25 13 -4 7 -14 6 -28 -2 -12 -6 -36 -9 -54 -7 -28 3
-30 5 -10 11 11 5 24 17 26 28 5 16 11 19 31 14 14 -3 26 -3 26 1 0 15 48 31
59 20 8 -8 11 -5 11 11 0 13 6 22 15 22 8 0 15 -6 15 -14 0 -8 7 -17 16 -20
26 -10 27 0 3 23 -18 16 -20 24 -11 33 19 19 15 23 -33 25 -25 1 -45 -3 -45
-8 0 -5 -9 -9 -20 -9 -17 0 -63 -17 -111 -40 -19 -10 -47 4 -30 14 6 4 11 1
11 -6 0 -8 5 -6 11 5 7 12 17 16 30 12 12 -4 19 -2 19 7 0 13 29 36 63 50 9 4
17 3 17 -1 0 -5 19 -8 43 -6 59 4 57 4 57 15 0 5 -6 7 -14 4 -8 -3 -17 0 -21
5 -3 6 -11 9 -16 6 -5 -4 -9 3 -9 14 0 12 11 24 30 33 30 13 42 50 20 63 -19
12 -10 23 25 35 24 8 35 18 35 31 0 10 5 19 10 19 6 0 10 7 10 15 0 8 -7 15
-15 15 -19 0 -19 9 2 32 15 17 15 18 -5 18 -28 0 -28 13 0 25 13 6 24 18 26
28 3 14 0 16 -22 7 -21 -7 -26 -6 -26 5 0 14 14 19 48 18 8 -1 10 6 6 19 -4
14 -2 18 5 14 25 -16 46 3 48 44 0 22 -3 40 -8 40 -5 0 -9 7 -9 15 0 25 26 17
53 -15 14 -16 28 -30 30 -30 11 0 -6 40 -17 41 -6 0 -2 4 9 8 15 6 23 3 31
-12 10 -18 11 -17 17 11 4 17 14 32 24 35 14 4 13 5 -4 6 -24 1 -31 15 -13 26
5 3 8 28 7 56 -4 56 9 84 33 69 13 -8 12 -10 -3 -10 -15 0 -16 -6 -11 -42 8
-51 12 -57 25 -38 6 10 11 12 17 4 8 -13 72 1 72 16 0 5 -9 16 -21 24 -21 14
-21 15 10 30 31 16 31 16 31 -7 0 -19 5 -24 23 -24 20 0 23 4 19 23 -2 13 -8
24 -13 24 -10 0 -11 48 -1 70 4 8 15 16 25 17 10 0 16 -2 13 -5 -3 -3 -1 -11
5 -18 8 -9 5 -11 -10 -7 -15 4 -21 1 -21 -10 0 -9 5 -19 10 -22 6 -3 10 -15
10 -26 0 -11 5 -17 10 -14 6 4 8 10 5 15 -6 10 13 25 43 34 13 5 22 3 22 -3 0
-6 -7 -11 -16 -11 -10 0 -14 -6 -10 -15 8 -21 -3 -45 -20 -45 -11 0 -12 -4 -5
-19 6 -10 7 -21 4 -25 -3 -3 1 -6 10 -6 8 0 17 -5 19 -12 3 -7 12 -9 22 -5 15
6 16 10 6 22 -7 8 -11 15 -9 15 2 0 19 4 37 10 27 7 33 6 29 -5 -3 -7 1 -16 9
-19 22 -8 23 -8 19 12 -2 9 -4 28 -4 41 -1 20 -3 22 -16 11 -9 -7 -19 -10 -23
-6 -4 4 2 14 13 22 11 8 19 22 17 30 -6 29 15 13 24 -18 7 -23 16 -33 29 -33
16 0 20 7 20 35 0 25 5 36 17 38 13 2 16 -1 12 -12 -9 -23 6 -20 50 10 36 24
40 25 51 10 21 -27 35 -19 20 12 -8 15 -22 27 -32 27 -27 0 -26 22 2 27 18 4
25 1 25 -10 0 -11 3 -12 15 -2 8 6 19 9 24 5 15 -9 51 13 51 30 0 8 -11 17
-25 21 -36 9 -20 24 26 24 29 0 41 5 45 18 12 40 32 59 35 35 1 -5 10 -20 21
-35 16 -24 17 -28 4 -28 -9 0 -16 7 -16 16 0 20 -34 14 -38 -6 -3 -19 58 -56
68 -40 7 12 56 4 77 -12 6 -5 23 -6 38 -2 20 5 23 9 13 15 -10 7 -10 9 3 9 9
0 22 6 28 14 17 20 59 26 65 9 3 -8 10 -11 16 -8 12 8 -17 40 -37 40 -7 0 -12
5 -10 10 1 6 20 10 43 10 22 0 47 5 55 11 8 7 22 8 34 3 13 -5 15 -8 5 -8 -24
-2 -43 -18 -35 -30 5 -9 11 -9 22 1 9 7 30 11 47 9 30 -3 30 -2 13 16 -31 35
-19 50 37 44 10 0 24 6 31 15 13 18 40 10 29 -8 -4 -6 1 -17 12 -25 14 -10 16
-16 6 -22 -9 -5 -6 -11 12 -19 20 -9 27 -8 38 5 11 14 11 15 -1 8 -11 -6 -13
-4 -8 9 4 10 7 20 7 22 0 2 9 4 20 4 10 0 24 9 30 20 8 16 8 20 -4 20 -8 0
-18 -4 -21 -10 -11 -18 -35 -10 -35 12 0 12 3 19 6 15 4 -3 14 3 23 14 11 14
30 21 56 23 22 1 51 8 64 15 21 12 26 11 40 -8 11 -15 23 -20 34 -15 21 8 22
-9 2 -26 -8 -7 -13 -16 -10 -20 3 -5 -4 -11 -15 -15 -16 -5 -19 -12 -14 -32 6
-22 4 -25 -10 -20 -28 11 -66 -13 -66 -42 0 -24 3 -26 50 -28 46 -1 50 1 50
22 0 13 5 27 10 30 6 3 10 2 10 -3 0 -6 7 -12 15 -15 11 -5 12 -1 5 18 -7 20
-6 25 5 25 8 0 15 8 15 18 0 10 3 22 6 25 8 7 44 -10 59 -28 16 -20 45 -26 45
-11 0 8 -6 16 -12 19 -9 3 -7 9 7 20 20 16 40 13 29 -4 -7 -13 15 -79 27 -79
6 0 5 8 -1 20 -10 18 -8 20 23 20 19 0 37 3 41 8 4 4 35 8 69 9 87 2 87 2 87
13 0 6 -27 10 -60 10 -45 0 -60 4 -60 14 0 8 6 17 13 19 6 3 3 6 -8 6 -17 1
-15 3 8 16 25 13 33 12 80 -6 28 -11 70 -20 92 -18 68 3 129 -1 122 -8 -4 -4
-29 -6 -57 -4 -27 1 -57 -2 -67 -8 -10 -5 -27 -13 -38 -17 -16 -6 -10 -9 28
-17 26 -5 47 -13 47 -18 0 -5 5 -9 10 -9 19 0 10 28 -10 33 -36 9 -21 23 20
19 33 -3 38 -7 29 -18 -16 -19 -5 -29 32 -32 18 -2 36 -6 39 -10 3 -5 21 -9
40 -10 34 -3 54 -18 43 -34 -2 -5 -14 -6 -26 -2 -17 5 -19 4 -10 -6 6 -7 9
-19 6 -26 -6 -17 9 -18 25 -2 9 9 12 9 12 0 0 -17 29 -15 36 2 7 18 58 31 76
20 9 -6 5 -10 -11 -14 -29 -7 -40 -30 -15 -30 23 0 87 22 95 33 3 5 24 -1 45
-12 21 -12 42 -21 46 -21 3 0 35 -13 71 -30 67 -31 155 -51 144 -33 -4 6 -24
13 -46 16 -43 5 -161 57 -161 70 0 4 10 2 23 -4 41 -23 197 -58 228 -52 60 12
28 37 -51 39 -46 1 -125 16 -212 40 -30 9 -20 21 12 16 17 -2 30 0 30 6 0 12
-18 18 -75 27 -58 9 -115 27 -115 37 0 4 5 8 11 8 5 0 7 5 4 10 -3 6 3 10 14
10 11 0 25 -8 30 -19 7 -12 27 -20 62 -25 28 -4 67 -17 87 -29 50 -31 161 -62
381 -107 57 -11 120 -29 140 -39 20 -10 42 -16 50 -13 8 3 19 -2 25 -10 6 -8
38 -25 71 -38 33 -13 64 -27 70 -32 13 -11 37 -10 30 2 -8 13 -2 13 71 -1 32
-7 65 -19 72 -27 8 -11 12 -12 12 -3 0 9 9 11 31 6 51 -11 26 10 -38 32 -32
12 -73 24 -92 27 -19 3 -40 11 -48 18 -7 6 -37 12 -66 13 -78 3 -87 4 -87 15
0 20 215 3 245 -20 6 -5 39 -19 75 -33 36 -14 73 -28 83 -32 12 -5 17 -2 17
12 0 15 -16 22 -82 38 -55 13 -74 21 -56 23 14 2 51 -3 82 -11 l56 -15 -3 71
-2 70 -45 24 c-25 14 -34 21 -20 18 71 -19 70 -19 70 9 0 24 -4 26 -39 26 -22
0 -43 5 -47 11 -5 9 6 10 40 5 37 -6 46 -4 46 7 0 10 -15 17 -42 21 -24 4 -50
11 -58 17 -11 8 -8 9 14 4 15 -3 41 -9 57 -12 l29 -5 0 1265 c0 780 -3 1268
-9 1272 -5 3 -8 22 -5 43 l5 37 -22 -43 c-13 -27 -18 -46 -12 -50 15 -10 24
-42 16 -55 -5 -7 -10 0 -13 17 -3 16 -11 31 -19 34 -10 3 -12 0 -8 -12 4 -9 3
-16 -2 -16 -5 0 -11 14 -14 30 -7 31 -27 42 -27 15 0 -8 -4 -15 -10 -15 -13 0
-13 13 0 26 7 7 6 23 -4 50 l-15 39 0 -36z m-291 -189 c0 -5 -7 -10 -15 -10
-8 0 -15 5 -15 10 0 6 7 10 15 10 8 0 15 -4 15 -10z m-411 -14 c8 -9 8 -16 2
-20 -6 -4 -15 3 -21 14 -12 23 2 27 19 6z m130 -55 c-3 -8 -10 -8 -23 2 -12 8
-16 19 -11 26 6 10 11 10 22 -2 9 -8 14 -20 12 -26z m-482 -63 c-3 -8 -6 -5
-6 6 -1 11 2 17 5 13 3 -3 4 -12 1 -19z m-168 -19 c13 -30 8 -51 -8 -33 -14
13 -25 64 -15 64 5 0 15 -14 23 -31z m-202 6 c9 -25 -4 -29 -17 -6 -7 15 -7
21 0 21 6 0 13 -7 17 -15z m100 -7 c-3 -8 -6 -5 -6 6 -1 11 2 17 5 13 3 -3 4
-12 1 -19z m1301 -48 c0 -32 -1 -33 -8 -10 -4 14 -8 39 -8 55 -1 25 1 27 8 10
5 -11 8 -36 8 -55z m-1398 -6 c0 -8 -4 -12 -10 -9 -5 3 -10 10 -10 16 0 5 5 9
10 9 6 0 10 -7 10 -16z m-360 -155 c0 -5 -7 -9 -15 -9 -8 0 -15 6 -15 14 0 8
-3 23 -6 33 -4 14 -1 13 15 -6 12 -13 21 -27 21 -32z m1280 -169 c6 -11 8 -20
6 -20 -3 0 -10 9 -16 20 -6 11 -8 20 -6 20 3 0 10 -9 16 -20z m-1700 -80 c0
-5 -4 -10 -10 -10 -5 0 -10 5 -10 10 0 6 5 10 10 10 6 0 10 -4 10 -10z m2090
-50 c0 -5 -2 -10 -4 -10 -3 0 -8 5 -11 10 -3 6 -1 10 4 10 6 0 11 -4 11 -10z
m-2431 -43 c6 -8 8 -17 4 -20 -7 -8 -33 11 -33 24 0 13 16 11 29 -4z m1318
-263 c-3 -3 -12 -4 -19 -1 -8 3 -5 6 6 6 11 1 17 -2 13 -5z m-1807 -43 c0 -5
-7 -14 -15 -21 -13 -10 -15 -9 -15 9 0 12 6 21 15 21 8 0 15 -4 15 -9z m-250
-301 c0 -5 -7 -10 -15 -10 -8 0 -15 5 -15 10 0 6 7 10 15 10 8 0 15 -4 15 -10z
m3243 -50 c-7 -8 -23 24 -22 45 0 15 3 13 13 -10 7 -16 11 -32 9 -35z m-3403
1 c0 -5 -9 -7 -20 -4 -11 3 -20 7 -20 9 0 2 9 4 20 4 11 0 20 -4 20 -9z m3115
-41 c-28 -12 -37 -12 -30 0 3 6 16 10 28 9 21 0 21 -1 2 -9z m292 -27 c-3 -10
-5 -4 -5 12 0 17 2 24 5 18 2 -7 2 -21 0 -30z m-1503 18 c4 -5 -3 -7 -14 -4
-23 6 -26 13 -6 13 8 0 17 -4 20 -9z m-1912 -22 c16 -8 18 -13 8 -19 -17 -11
-40 -1 -40 16 0 17 5 17 32 3z m118 1 c0 -5 -18 -10 -40 -10 -22 0 -40 5 -40
10 0 6 18 10 40 10 22 0 40 -4 40 -10z m1805 -49 c-6 -5 -23 -12 -40 -15 l-30
-6 30 14 c35 18 54 20 40 7z m1515 -29 c0 -15 -2 -15 -10 -2 -13 20 -13 33 0
25 6 -3 10 -14 10 -23z m-1873 12 c-3 -3 -12 -4 -19 -1 -8 3 -5 6 6 6 11 1 17
-2 13 -5z m-1667 -84 c0 -5 -4 -10 -10 -10 -5 0 -10 5 -10 10 0 6 5 10 10 10
6 0 10 -4 10 -10z m2240 -20 c0 -5 -2 -10 -4 -10 -3 0 -8 5 -11 10 -3 6 -1 10
4 10 6 0 11 -4 11 -10z m-2315 -40 c-28 -12 -45 -12 -45 0 0 6 15 10 33 9 27
0 29 -2 12 -9z m2860 -68 c-3 -3 -11 0 -18 7 -9 10 -8 11 6 5 10 -3 15 -9 12
-12z m-2915 -7 c0 -8 -7 -15 -15 -15 -16 0 -20 12 -8 23 11 12 23 8 23 -8z
m2957 -1 c-3 -3 -12 -4 -19 -1 -8 3 -5 6 6 6 11 1 17 -2 13 -5z m-2852 -14
c-3 -5 -14 -10 -23 -9 -14 0 -13 2 3 9 27 11 27 11 20 0z m-78 -26 c-3 -3 -12
-4 -19 -1 -8 3 -5 6 6 6 11 1 17 -2 13 -5z m-80 -20 c-3 -3 -12 -4 -19 -1 -8
3 -5 6 6 6 11 1 17 -2 13 -5z m2438 -44 c3 -5 17 -10 30 -10 13 0 27 -5 31
-12 5 -8 0 -9 -17 -5 -13 4 -31 7 -40 7 -9 0 -19 7 -23 15 -6 17 9 21 19 5z
m-2507 -12 c-3 -7 -13 -15 -24 -17 -10 -1 -27 -10 -36 -18 -9 -8 -27 -13 -40
-10 -20 4 -19 5 10 12 17 4 32 12 32 17 0 5 10 13 23 18 31 12 39 12 35 -2z
m3155 -65 c-7 -2 -19 -2 -25 0 -7 3 -2 5 12 5 14 0 19 -2 13 -5z m-1127 -34
c47 -29 43 -44 -6 -19 -22 11 -40 25 -40 30 0 15 9 12 46 -11z m110 -64 c36
-19 41 -24 20 -20 -16 4 -41 15 -54 26 -33 25 -26 24 34 -6z m1459 15 c-3 -5
-17 -10 -31 -10 -14 0 -22 4 -19 10 3 6 17 10 31 10 14 0 22 -4 19 -10z
m-3725 -5 c0 -7 -57 -35 -71 -35 -9 0 -9 4 1 14 10 13 21 17 63 25 4 0 7 -1 7
-4z m46 -10 c-23 -17 -36 -19 -36 -6 0 11 18 19 40 20 11 0 10 -3 -4 -14z
m159 -5 c-3 -5 -11 -10 -16 -10 -6 0 -7 5 -4 10 3 6 11 10 16 10 6 0 7 -4 4
-10z m2680 -29 c7 -12 -31 -25 -45 -16 -6 4 -8 11 -5 16 8 12 42 12 50 0z
m-535 -11 c0 -5 -2 -10 -4 -10 -3 0 -8 5 -11 10 -3 6 -1 10 4 10 6 0 11 -4 11
-10z m610 0 c0 -5 -6 -10 -14 -10 -8 0 -18 5 -21 10 -3 6 3 10 14 10 12 0 21
-4 21 -10z m80 -10 c0 -5 -5 -10 -11 -10 -5 0 -7 5 -4 10 3 6 8 10 11 10 2 0
4 -4 4 -10z m-362 -7 c-10 -2 -26 -2 -35 0 -10 3 -2 5 17 5 19 0 27 -2 18 -5z
m-1456 -35 c-7 -7 -12 -8 -12 -2 0 14 12 26 19 19 2 -3 -1 -11 -7 -17z m2588
12 c0 -5 -13 -10 -29 -10 -17 0 -33 5 -36 10 -4 6 8 10 29 10 20 0 36 -4 36
-10z m-1087 -41 c-7 -7 -36 -13 -65 -15 l-53 -3 47 7 c26 5 50 11 54 15 4 4
12 7 18 7 6 0 6 -4 -1 -11z m167 -19 c11 -7 6 -10 -20 -10 -26 0 -31 3 -20 10
8 5 17 10 20 10 3 0 12 -5 20 -10z m687 4 c-3 -3 -12 -4 -19 -1 -8 3 -5 6 6 6
11 1 17 -2 13 -5z m-1009 -19 c-4 -5 -112 -35 -123 -35 -3 0 -5 4 -5 9 0 6 19
14 43 19 48 11 93 15 85 7z m-1158 -25 c0 -5 -2 -10 -4 -10 -3 0 -8 5 -11 10
-3 6 -1 10 4 10 6 0 11 -4 11 -10z m1580 0 c-19 -13 -30 -13 -30 0 0 6 10 10
23 10 18 0 19 -2 7 -10z m790 -10 c0 -5 -10 -10 -22 -10 -13 0 -34 -3 -47 -7
-22 -6 -23 -5 -10 10 15 18 79 23 79 7z m-3935 -10 c-3 -5 -13 -10 -21 -10 -8
0 -12 5 -9 10 3 6 13 10 21 10 8 0 12 -4 9 -10z m3000 -25 c6 -2 -14 -4 -43
-4 -29 -1 -51 3 -48 7 4 7 67 5 91 -3z m205 6 c0 -10 -32 -38 -36 -31 -1 3
-14 -5 -28 -17 -31 -27 -36 -28 -36 -8 0 9 8 19 18 22 9 4 19 10 22 13 7 9 43
29 53 30 4 0 7 -4 7 -9z m90 -1 c0 -5 -11 -10 -25 -10 -14 0 -25 5 -25 10 0 6
11 10 25 10 14 0 25 -4 25 -10z m255 -2 c-16 -6 -39 -17 -50 -24 -26 -19 -40
-18 -21 1 18 19 55 34 81 34 14 -1 11 -4 -10 -11z m55 2 c0 -5 -4 -10 -10 -10
-5 0 -10 5 -10 10 0 6 5 10 10 10 6 0 10 -4 10 -10z m35 0 c-3 -5 -11 -10 -16
-10 -6 0 -7 5 -4 10 3 6 11 10 16 10 6 0 7 -4 4 -10z m-938 -35 c-23 -12 -114
-35 -137 -35 -6 0 -10 5 -10 10 0 6 9 10 21 10 11 0 30 5 42 12 26 14 88 26
100 20 5 -2 -3 -10 -16 -17z m1328 15 c-3 -5 -23 -10 -43 -9 -30 0 -33 2 -17
9 28 12 67 12 60 0z m100 -10 c-27 -12 -35 -12 -35 0 0 6 12 10 28 9 24 0 25
-1 7 -9z m-2595 -10 c0 -5 -7 -10 -15 -10 -8 0 -15 5 -15 10 0 6 7 10 15 10 8
0 15 -4 15 -10z m2270 0 c0 -5 -18 -10 -41 -10 -22 0 -48 -4 -57 -9 -10 -5
-49 -6 -87 -3 l-70 6 60 12 c76 15 195 17 195 4z m384 1 c4 -5 -3 -7 -14 -4
-23 6 -26 13 -6 13 8 0 17 -4 20 -9z m-2236 -29 c6 -18 -15 -14 -22 4 -4 10
-1 14 6 12 6 -2 14 -10 16 -16z m2005 -1 c4 -4 -9 -7 -28 -8 -33 -1 -43 6 -28
20 7 8 43 0 56 -12z m-3033 -1 c0 -5 -5 -10 -11 -10 -5 0 -7 5 -4 10 3 6 8 10
11 10 2 0 4 -4 4 -10z m407 4 c-3 -3 -12 -4 -19 -1 -8 3 -5 6 6 6 11 1 17 -2
13 -5z m893 -3 c0 -5 -9 -11 -19 -14 -14 -3 -18 -1 -14 9 6 15 33 19 33 5z
m245 -1 c3 -5 1 -10 -4 -10 -6 0 -11 5 -11 10 0 6 2 10 4 10 3 0 8 -4 11 -10z
m385 -10 c11 -7 5 -8 -20 -4 -43 8 -51 14 -19 14 13 0 31 -5 39 -10z m645 0
c-7 -12 -98 -11 -117 1 -8 5 15 9 55 9 44 0 66 -4 62 -10z m301 -11 c6 -10 -2
-11 -33 -3 -13 4 -23 10 -23 14 0 10 49 0 56 -11z m64 6 c-15 -17 -40 -20 -40
-4 0 6 7 9 15 6 8 -4 17 -2 20 3 4 6 9 10 12 10 3 0 0 -7 -7 -15z m-2250 -10
c0 -8 -6 -15 -14 -15 -8 0 -16 7 -20 15 -4 10 1 15 14 15 11 0 20 -7 20 -15z
m227 -2 c2 -6 -3 -13 -12 -16 -10 -5 -15 0 -15 14 0 21 21 22 27 2z m313 13
c0 -9 -30 -14 -35 -6 -4 6 3 10 14 10 12 0 21 -2 21 -4z m-1166 -21 c-4 -8
-10 -15 -15 -15 -5 0 -9 7 -9 15 0 8 7 15 15 15 9 0 12 -6 9 -15z m146 5 c0
-5 -2 -10 -4 -10 -3 0 -8 5 -11 10 -3 6 -1 10 4 10 6 0 11 -4 11 -10z m250
-10 c0 -5 -7 -10 -16 -10 -8 0 -12 5 -9 10 3 6 10 10 16 10 5 0 9 -4 9 -10z
m298 -1 c-10 -5 -18 -19 -18 -30 0 -17 -3 -18 -20 -9 -29 15 -9 50 28 50 23
-1 25 -2 10 -11z m702 1 c0 -5 -5 -10 -11 -10 -5 0 -7 5 -4 10 3 6 8 10 11 10
2 0 4 -4 4 -10z m-1283 -6 c-3 -3 -12 -4 -19 -1 -8 3 -5 6 6 6 11 1 17 -2 13
-5z m1183 2 c0 -3 -4 -16 -10 -30 -7 -19 -16 -25 -32 -23 -32 3 -54 25 -40 39
8 8 13 7 18 -5 9 -24 44 -22 44 3 0 11 5 20 10 20 6 0 10 -2 10 -4z m283 -3
c-7 -2 -21 -2 -30 0 -10 3 -4 5 12 5 17 0 24 -2 18 -5z m-1015 -13 c6 0 12 -4
12 -8 0 -5 -6 -9 -12 -9 -7 0 -20 -4 -29 -7 -12 -5 -18 -1 -22 14 -5 19 -2 21
16 16 12 -3 28 -6 35 -6z m-574 -15 c-7 -16 -39 -21 -48 -6 -8 12 4 21 30 21
17 0 22 -4 18 -15z m836 5 c-20 -13 -43 -13 -35 0 3 6 16 10 28 10 18 0 19 -2
7 -10z m2173 3 c-7 -2 -21 -2 -30 0 -10 3 -4 5 12 5 17 0 24 -2 18 -5z m-3125
-22 c3 -8 -1 -12 -9 -9 -7 2 -15 10 -17 17 -3 8 1 12 9 9 7 -2 15 -10 17 -17z
m2197 9 c17 -7 14 -9 -13 -9 -20 -1 -31 3 -27 9 7 12 13 12 40 0z m1041 -11
c6 -10 -11 -11 -43 -3 -13 4 -21 10 -18 14 6 9 53 1 61 -11z m-3039 -15 c-2
-2 -12 -1 -22 3 -18 6 -18 7 1 13 17 7 33 -5 21 -16z m1273 11 c6 -8 9 -19 5
-25 -11 -17 -22 -11 -27 15 -6 28 3 32 22 10z m626 1 c10 -8 16 -17 12 -21 -4
-4 -17 2 -29 14 -26 24 -13 29 17 7z m444 6 c0 -5 -13 -7 -30 -4 -16 2 -30 6
-30 8 0 2 14 4 30 4 17 0 30 -4 30 -8z m113 -8 c20 4 54 -2 96 -16 37 -12 58
-24 49 -26 -31 -6 -19 -19 24 -26 52 -9 67 -18 43 -26 -19 -7 -19 -7 1 -18 11
-6 31 -12 45 -14 13 -2 29 -7 36 -11 6 -4 13 -2 15 5 5 13 38 4 38 -10 0 -15
-50 -12 -113 6 -35 10 -56 21 -53 28 4 11 -26 24 -66 29 -26 3 -34 15 -18 25
12 8 10 10 -7 10 -13 0 -23 -4 -23 -10 0 -6 -26 -10 -57 -10 -53 1 -56 2 -39
15 11 8 28 13 38 9 10 -3 18 -1 18 4 0 5 -21 13 -47 18 -25 5 -48 15 -51 22
-3 11 0 12 18 2 13 -7 36 -9 53 -6z m-1929 -9 c-4 -8 -7 -15 -9 -15 -2 0 -5 7
-9 15 -3 9 0 15 9 15 9 0 12 -6 9 -15z m-602 -15 c10 0 18 -4 18 -10 0 -11 -6
-12 -37 -4 -13 4 -23 13 -23 22 0 12 3 13 12 4 7 -7 20 -12 30 -12z m562 0 c4
-4 3 -16 -3 -27 -6 -10 -11 -12 -11 -5 0 6 -7 12 -15 12 -17 0 -17 -50 0 -62
6 -5 5 -11 -5 -18 -23 -15 -30 -12 -40 16 -11 28 -30 24 -30 -7 0 -10 -4 -19
-9 -19 -11 0 -21 25 -21 51 0 10 -4 19 -9 19 -15 0 -20 -27 -8 -39 8 -8 8 -14
-1 -23 -10 -10 -14 -8 -18 10 -4 12 -10 22 -16 22 -5 0 3 17 16 37 17 24 35
38 53 41 15 2 30 6 33 8 7 7 73 -6 84 -16z m1646 -4 c0 -1 -14 0 -31 2 -21 3
-27 7 -18 13 11 6 49 -5 49 -15z m-2950 -6 c-24 -15 -37 -11 -16 5 11 8 22 12
25 9 3 -3 -1 -9 -9 -14z m3620 -30 c31 0 130 -32 130 -42 0 -9 -41 -2 -120 19
-30 8 -68 17 -85 20 -43 7 -96 33 -90 43 3 5 36 -2 74 -15 38 -14 79 -25 91
-25z m-60 40 c0 -5 -4 -10 -9 -10 -6 0 -13 5 -16 10 -3 6 1 10 9 10 9 0 16 -4
16 -10z m-2950 -43 c0 -5 -5 -5 -11 -2 -5 4 -20 -1 -31 -12 -12 -10 -18 -13
-15 -6 4 6 3 14 -3 18 -5 3 -10 11 -10 17 0 6 6 6 16 -2 13 -11 16 -10 21 9 5
20 6 20 19 4 7 -10 14 -22 14 -26z m250 33 c0 -5 -4 -10 -9 -10 -6 0 -13 5
-16 10 -3 6 1 10 9 10 9 0 16 -4 16 -10z m1710 -4 c14 -1 24 -5 22 -11 -2 -9
-71 -9 -104 1 -36 11 -19 26 20 19 20 -5 48 -8 62 -9z m634 -6 c8 -8 -1 -9
-34 -4 -61 9 -80 28 -21 21 24 -3 49 -11 55 -17z m409 13 c-7 -2 -19 -2 -25 0
-7 3 -2 5 12 5 14 0 19 -2 13 -5z m-950 -20 c-7 -2 -19 -2 -25 0 -7 3 -2 5 12
5 14 0 19 -2 13 -5z m367 -3 c19 -6 10 -8 -35 -9 -33 0 -67 4 -75 9 -19 12 72
12 110 0z m796 -4 c10 -8 16 -18 12 -22 -9 -8 -68 15 -68 27 0 14 34 11 56 -5z
m-3119 -10 c-3 -8 -1 -17 6 -19 9 -3 9 -10 -2 -29 -7 -15 -11 -30 -7 -36 3 -6
-12 -9 -38 -9 -29 0 -53 -7 -75 -22 -17 -12 -31 -19 -31 -14 0 16 15 30 38 37
12 4 22 13 22 21 0 7 9 15 19 18 13 3 18 0 15 -8 -3 -7 -1 -16 5 -19 14 -9 43
24 36 42 -6 15 2 52 12 52 3 0 3 -6 0 -14z m147 8 c14 -5 12 -11 -11 -32 -16
-14 -28 -29 -28 -33 0 -4 -3 -11 -7 -15 -5 -4 -8 8 -8 27 0 48 19 66 54 53z
m76 -34 c18 -44 7 -63 -31 -55 -21 5 -36 2 -48 -9 -17 -16 -18 -15 -14 8 4 17
13 26 34 30 30 6 52 37 31 44 -7 2 -10 8 -6 13 8 14 20 3 34 -31z m2815 30 c3
-5 1 -10 -4 -10 -6 0 -11 5 -11 10 0 6 2 10 4 10 3 0 8 -4 11 -10z m-3865 -4
c0 -2 -7 -6 -15 -10 -8 -3 -15 -1 -15 4 0 6 7 10 15 10 8 0 15 -2 15 -4z
m3660 -28 c0 -13 -23 -5 -28 10 -2 7 2 10 12 6 9 -3 16 -11 16 -16z m-487 0
c24 -12 37 -28 21 -28 -11 0 -104 32 -104 36 0 9 58 3 83 -8z m132 -20 c13
-11 -8 -10 -39 2 -14 5 -26 14 -26 20 0 10 45 -5 65 -22z m-3540 12 c-27 -12
-43 -12 -25 0 8 5 22 9 30 9 10 0 8 -3 -5 -9z m2196 -3 c-1 -12 -15 -9 -19 4
-3 6 1 10 8 8 6 -3 11 -8 11 -12z m-1258 -22 c-10 -13 -21 -25 -25 -25 -15 0
-8 29 10 39 29 17 34 12 15 -14z m2684 19 c-3 -3 -12 -4 -19 -1 -8 3 -5 6 6 6
11 1 17 -2 13 -5z m550 0 c-3 -3 -12 -4 -19 -1 -8 3 -5 6 6 6 11 1 17 -2 13
-5z m-3050 -30 c-9 -9 -28 6 -21 18 4 6 10 6 17 -1 6 -6 8 -13 4 -17z m2657 4
c22 -6 46 -14 51 -18 6 -4 56 -18 112 -31 57 -13 103 -27 103 -30 0 -11 -122
-2 -129 9 -3 6 -20 13 -36 17 -17 4 -59 18 -94 32 -35 14 -72 22 -82 20 -11
-3 -22 -1 -25 4 -8 13 51 11 100 -3z m266 -24 c0 -2 -11 -4 -25 -4 -14 0 -25
4 -25 9 0 4 11 6 25 3 14 -2 25 -6 25 -8z m-2897 -14 c-3 -11 -9 -20 -14 -20
-14 0 -11 28 4 33 6 3 13 6 14 6 0 1 -1 -8 -4 -19z m2574 4 c-3 -3 -12 -4 -19
-1 -8 3 -5 6 6 6 11 1 17 -2 13 -5z m-2847 -24 c0 -5 -4 -10 -10 -10 -5 0 -10
5 -10 10 0 6 5 10 10 10 6 0 10 -4 10 -10z m225 -1 c12 -19 -5 -23 -22 -6 -16
16 -16 17 -1 17 9 0 20 -5 23 -11z m95 -20 c0 -11 -49 -24 -57 -15 -10 9 29
35 44 29 7 -3 13 -9 13 -14z m-205 3 c12 -8 18 -52 7 -52 -4 0 -13 14 -19 30
-11 30 -8 36 12 22z m-1118 -8 c-3 -3 -12 -4 -19 -1 -8 3 -5 6 6 6 11 1 17 -2
13 -5z m1193 -4 c10 -6 12 -12 5 -19 -7 -7 -14 -4 -23 9 -13 21 -6 25 18 10z
m-120 -10 c0 -5 -4 -10 -10 -10 -5 0 -10 5 -10 10 0 6 5 10 10 10 6 0 10 -4
10 -10z m3278 -1 c75 -18 71 -28 -5 -13 -37 8 -72 16 -78 18 -23 9 40 5 83 -5z
m-4063 -51 c-16 -5 -51 -18 -77 -29 -59 -24 -67 -24 -35 1 14 11 33 20 44 20
10 0 25 5 33 10 8 5 26 9 40 9 24 -1 23 -1 -5 -11z m635 -14 c0 -8 -4 -12 -10
-9 -5 3 -10 10 -10 16 0 5 5 9 10 9 6 0 10 -7 10 -16z m-960 0 c0 -12 -34 -33
-52 -34 -10 0 -18 4 -18 10 0 5 8 14 18 19 19 12 52 14 52 5z m1170 -8 c0 -2
-7 -9 -15 -16 -13 -11 -14 -10 -9 4 5 14 24 23 24 12z m-360 -25 c0 -6 -4 -13
-10 -16 -5 -3 -10 1 -10 9 0 9 5 16 10 16 6 0 10 -4 10 -9z m320 -27 c0 -8 -4
-12 -10 -9 -5 3 -10 10 -10 16 0 5 5 9 10 9 6 0 10 -7 10 -16z m-189 -17 c-1
-12 -15 -9 -19 4 -3 6 1 10 8 8 6 -3 11 -8 11 -12z m-141 -101 c0 -5 -7 -1
-15 10 -8 10 -14 24 -14 29 0 6 6 1 14 -9 8 -11 15 -24 15 -30z m-42 11 c8
-10 6 -13 -9 -14 -10 -1 -19 5 -19 13 0 17 14 18 28 1z m-893 -27 c-3 -5 -12
-10 -18 -10 -7 0 -6 4 3 10 19 12 23 12 15 0z m821 -1 c7 -12 -15 -31 -28 -23
-9 6 1 34 12 34 5 0 12 -5 16 -11z m-48 -51 c-6 -18 -28 -21 -28 -4 0 9 7 16
16 16 9 0 14 -5 12 -12z m52 -17 c0 -6 -4 -13 -10 -16 -5 -3 -10 1 -10 9 0 9
5 16 10 16 6 0 10 -4 10 -9z m-93 -245 c-5 -16 -27 -19 -27 -3 0 7 7 14 15 14
9 0 14 -5 12 -11z m-812 -72 c-35 -15 -55 -17 -55 -6 0 12 52 29 70 23 10 -3
5 -9 -15 -17z m740 -14 c-3 -5 -13 -10 -21 -10 -8 0 -14 5 -14 10 0 6 9 10 21
10 11 0 17 -4 14 -10z m-815 -64 c0 -2 -7 -7 -16 -10 -8 -3 -12 -2 -9 4 6 10
25 14 25 6z m205 -156 c-3 -5 -14 -10 -23 -9 -14 0 -13 2 3 9 27 11 27 11 20
0z m335 -20 c0 -5 -9 -10 -21 -10 -11 0 -17 5 -14 10 3 6 13 10 21 10 8 0 14
-4 14 -10z m70 -90 c0 -5 -4 -10 -9 -10 -5 0 -18 -3 -28 -6 -16 -5 -16 -4 1
10 23 18 36 20 36 6z m140 -20 c0 -5 -9 -10 -20 -10 -11 0 -20 5 -20 10 0 6 9
10 20 10 11 0 20 -4 20 -10z m-826 -32 c-7 -19 -94 -81 -102 -73 -10 10 12 38
48 63 36 24 62 29 54 10z m446 2 c0 -5 -5 -10 -11 -10 -5 0 -7 5 -4 10 3 6 8
10 11 10 2 0 4 -4 4 -10z m-35 -20 c-3 -5 -10 -10 -16 -10 -5 0 -9 5 -9 10 0
6 7 10 16 10 8 0 12 -4 9 -10z m285 0 c0 -5 -7 -10 -16 -10 -8 0 -12 5 -9 10
3 6 10 10 16 10 5 0 9 -4 9 -10z m-200 -4 c0 -8 -87 -46 -106 -46 -10 0 3 11
31 24 47 23 75 31 75 22z m67 -42 c-3 -3 -12 -4 -19 -1 -8 3 -5 6 6 6 11 1 17
-2 13 -5z m93 -12 c0 -5 -19 -15 -42 -22 -24 -7 -47 -17 -52 -22 -14 -11 -26
-10 -26 3 0 5 5 7 10 4 6 -3 10 0 10 8 0 9 11 14 31 15 18 0 37 6 42 11 13 13
27 14 27 3z m-558 -24 c-9 -9 -15 -9 -24 0 -9 9 -7 12 12 12 19 0 21 -3 12
-12z m393 2 c-3 -5 -13 -10 -21 -10 -8 0 -12 5 -9 10 3 6 13 10 21 10 8 0 12
-4 9 -10z m-545 -5 c0 -9 -58 -34 -64 -28 -4 4 6 12 21 19 31 14 43 16 43 9z
m55 -35 c-3 -5 -11 -10 -16 -10 -6 0 -7 5 -4 10 3 6 11 10 16 10 6 0 7 -4 4
-10z m380 -25 c-26 -22 -55 -33 -55 -21 0 7 64 46 75 45 6 0 -3 -11 -20 -24z
m-186 -44 c-13 -11 -30 -20 -38 -21 -17 0 -10 7 26 30 36 22 43 16 12 -9z
m-212 -18 c-3 -3 -11 -2 -17 2 -8 5 -7 11 2 22 12 15 13 14 16 -1 2 -10 1 -20
-1 -23z m448 7 c-3 -5 -11 -10 -16 -10 -6 0 -7 5 -4 10 3 6 11 10 16 10 6 0 7
-4 4 -10z m-315 -20 c0 -5 -5 -10 -11 -10 -5 0 -7 5 -4 10 3 6 8 10 11 10 2 0
4 -4 4 -10z m190 4 c0 -3 -7 -12 -15 -21 -20 -19 -32 -9 -15 12 12 15 30 20
30 9z m179 2 c-15 -13 -49 -25 -49 -17 0 5 8 12 18 14 24 6 36 8 31 3z m-289
-66 c0 -5 -2 -10 -4 -10 -2 0 -12 -3 -22 -7 -16 -6 -17 -5 -4 10 17 19 30 22
30 7z m229 -21 c-8 -5 -21 -9 -29 -9 -10 1 -7 7 10 21 17 14 26 17 28 9 3 -7
-2 -16 -9 -21z m-429 -4 c-7 -9 -15 -13 -19 -10 -3 3 1 10 9 15 21 14 24 12
10 -5z m560 5 c0 -5 -5 -10 -11 -10 -5 0 -7 5 -4 10 3 6 8 10 11 10 2 0 4 -4
4 -10z m-195 -20 c-3 -5 -13 -10 -21 -10 -8 0 -12 5 -9 10 3 6 13 10 21 10 8
0 12 -4 9 -10z m-241 -44 c-3 -9 -10 -16 -15 -16 -5 0 -4 9 3 20 14 22 21 20
12 -4z m-288 -43 c-11 -11 -19 6 -11 24 8 17 8 17 12 0 3 -10 2 -21 -1 -24z
m421 5 c-3 -7 -5 -2 -5 12 0 14 2 19 5 13 2 -7 2 -19 0 -25z m63 28 c0 -3 -4
-8 -10 -11 -5 -3 -10 -1 -10 4 0 6 5 11 10 11 6 0 10 -2 10 -4z m260 0 c0 -11
-19 -15 -25 -6 -3 5 1 10 9 10 9 0 16 -2 16 -4z m-600 -25 c0 -5 -8 -11 -17
-15 -10 -3 -25 -9 -33 -12 -8 -3 -4 4 10 15 27 22 40 26 40 12z m-96 -16 c-4
-8 -9 -15 -14 -15 -4 0 -24 -17 -46 -37 -21 -21 -46 -39 -56 -39 -18 -1 -18 0
-2 17 10 11 23 19 31 19 7 0 13 6 13 14 0 10 52 48 77 55 1 1 0 -6 -3 -14z
m536 -15 c-14 -11 -31 -20 -37 -20 -7 0 -22 -9 -33 -20 -11 -11 -29 -20 -40
-20 -30 0 -33 -1 -55 -16 -25 -18 -35 -18 -35 1 0 8 9 15 20 15 11 0 36 10 57
22 39 22 120 56 138 57 6 0 -1 -8 -15 -19z m-516 -25 c-4 -8 -14 -15 -23 -15
-14 1 -13 3 3 15 25 19 27 19 20 0z m66 -4 c0 -5 -7 -12 -16 -15 -24 -9 -28
-7 -14 9 14 17 30 20 30 6z m150 -1 c0 -5 -4 -10 -10 -10 -5 0 -10 5 -10 10 0
6 5 10 10 10 6 0 10 -4 10 -10z m450 -32 c0 -13 -23 -5 -28 10 -2 7 2 10 12 6
9 -3 16 -11 16 -16z m-185 -54 c-22 -20 -53 -48 -69 -63 -30 -27 -32 -28 -66
-30 -11 0 -29 -10 -39 -20 -12 -12 -23 -15 -28 -10 -6 6 -18 2 -33 -11 -12
-11 -27 -17 -32 -14 -15 9 43 64 68 64 12 0 27 7 35 16 13 16 54 40 122 69 20
10 37 21 37 26 0 5 10 9 23 9 20 -1 18 -4 -18 -36z m115 32 c0 -3 -4 -8 -10
-11 -5 -3 -10 -1 -10 4 0 6 5 11 10 11 6 0 10 -2 10 -4z m-303 -23 c-9 -9 -20
-13 -24 -9 -4 4 -1 11 7 16 25 16 35 11 17 -7z m73 3 c0 -3 -4 -8 -10 -11 -5
-3 -10 -1 -10 4 0 6 5 11 10 11 6 0 10 -2 10 -4z m-237 -35 c-22 -11 -44 -29
-48 -40 -7 -25 -25 -28 -25 -5 0 13 -5 12 -34 -6 -22 -13 -37 -17 -41 -10 -9
15 16 35 48 38 15 2 42 12 60 22 18 11 43 20 57 20 21 0 18 -3 -17 -19z m532
-11 c17 -7 15 -9 -12 -9 -17 -1 -33 -6 -35 -12 -2 -6 -13 -9 -23 -7 -17 3 -16
6 10 20 36 19 35 19 60 8z m-90 -60 c3 -5 1 -10 -4 -10 -6 0 -11 5 -11 10 0 6
2 10 4 10 3 0 8 -4 11 -10z m-95 -25 c-27 -29 -62 -37 -39 -9 11 14 41 31 58
33 3 1 -6 -10 -19 -24z m-440 5 c0 -5 -4 -10 -10 -10 -5 0 -10 5 -10 10 0 6 5
10 10 10 6 0 10 -4 10 -10z m318 -2 c-3 -7 -14 -17 -26 -23 -12 -5 -22 -13
-22 -17 0 -5 -10 -8 -22 -8 -20 0 -18 3 12 21 19 12 37 25 38 30 6 14 24 10
20 -3z m192 8 c0 -3 -4 -8 -10 -11 -5 -3 -10 -1 -10 4 0 6 5 11 10 11 6 0 10
-2 10 -4z m-625 -75 c-3 -6 -11 -11 -16 -11 -5 0 -4 6 3 14 14 16 24 13 13 -3z
m410 -26 c-11 -8 -25 -19 -32 -25 -15 -13 -23 -13 -23 0 0 13 62 51 70 44 3
-3 -4 -12 -15 -19z m-195 5 c0 -5 -4 -10 -10 -10 -5 0 -10 5 -10 10 0 6 5 10
10 10 6 0 10 -4 10 -10z m-88 -42 c-7 -7 -12 -8 -12 -2 0 6 3 14 7 17 3 4 9 5
12 2 2 -3 -1 -11 -7 -17z m173 12 c-3 -5 -11 -10 -16 -10 -6 0 -7 5 -4 10 3 6
11 10 16 10 6 0 7 -4 4 -10z m-35 -20 c0 -5 -9 -10 -20 -10 -11 0 -20 5 -20
10 0 6 9 10 20 10 11 0 20 -4 20 -10z m275 -70 c-18 -29 -163 -59 -171 -35 -2
6 11 11 30 12 19 1 47 8 63 17 31 17 88 22 78 6z m-415 -50 c0 -5 -4 -10 -10
-10 -5 0 -10 5 -10 10 0 6 5 10 10 10 6 0 10 -4 10 -10z m-40 -17 c0 -13 -53
-63 -67 -63 -22 0 -15 17 20 44 32 26 47 32 47 19z m260 -14 c0 -5 -7 -9 -15
-9 -8 0 -15 -4 -15 -10 0 -13 6 -13 41 6 17 8 35 14 41 12 15 -5 -49 -43 -86
-52 -27 -7 -28 -6 -22 20 11 41 56 68 56 33z m-410 -19 c0 -5 -4 -10 -10 -10
-5 0 -10 5 -10 10 0 6 5 10 10 10 6 0 10 -4 10 -10z m210 -22 c0 -7 -17 -21
-38 -31 -37 -17 -37 -17 -13 1 13 11 21 24 17 31 -5 7 1 11 13 11 12 0 21 -6
21 -12z m110 3 c0 -6 -4 -13 -10 -16 -5 -3 -10 1 -10 9 0 9 5 16 10 16 6 0 10
-4 10 -9z m-370 -15 c0 -3 -4 -8 -10 -11 -5 -3 -10 -1 -10 4 0 6 5 11 10 11 6
0 10 -2 10 -4z m40 -16 c0 -5 -5 -10 -11 -10 -5 0 -7 5 -4 10 3 6 8 10 11 10
2 0 4 -4 4 -10z m430 -10 c0 -5 -7 -10 -16 -10 -8 0 -12 5 -9 10 3 6 10 10 16
10 5 0 9 -4 9 -10z m-95 -20 c-3 -5 -11 -10 -16 -10 -6 0 -7 5 -4 10 3 6 11
10 16 10 6 0 7 -4 4 -10z m-276 -32 c11 -31 -9 -43 -24 -15 -8 16 -8 24 -1 29
15 11 16 11 25 -14z m61 7 c0 -8 -9 -15 -20 -15 -22 0 -27 15 -7 23 21 9 27 7
27 -8z m265 -5 c-4 -6 -10 -8 -15 -5 -5 3 -11 1 -15 -5 -8 -13 -25 -13 -25 -1
0 5 8 12 18 14 31 8 43 7 37 -3z m-145 -15 c-7 -9 -15 -13 -19 -10 -3 3 1 10
9 15 21 14 24 12 10 -5z m-110 -105 c0 -5 -4 -10 -9 -10 -5 0 -18 -3 -28 -6
-16 -6 -16 -5 2 9 23 19 35 21 35 7z m-5 -40 c-3 -5 -10 -10 -16 -10 -5 0 -9
5 -9 10 0 6 7 10 16 10 8 0 12 -4 9 -10z m5 -90 c0 -5 -9 -14 -20 -20 -11 -6
-20 -18 -20 -26 0 -9 -7 -14 -17 -12 -25 5 -22 31 5 43 12 5 22 13 22 17 0 5
7 8 15 8 8 0 15 -4 15 -10z m115 -21 c-3 -8 -17 -19 -31 -26 -21 -10 -29 -10
-40 2 -20 19 -17 27 6 20 11 -4 29 0 42 9 24 17 31 16 23 -5z m-112 -59 c3
-11 0 -23 -5 -27 -7 -3 -8 -1 -4 5 4 7 1 12 -8 12 -9 0 -16 7 -16 15 0 22 27
18 33 -5z m-123 -34 c0 -8 -7 -16 -15 -20 -10 -4 -15 1 -15 14 0 11 7 20 15
20 8 0 15 -6 15 -14z m-40 -127 c0 -5 -4 -9 -10 -9 -5 0 -10 7 -10 16 0 8 5
12 10 9 6 -3 10 -10 10 -16z"/>
<path d="M7210 6829 c0 -5 5 -7 10 -4 6 3 10 8 10 11 0 2 -4 4 -10 4 -5 0 -10
-5 -10 -11z"/>
<path d="M9382 9360 c0 -14 2 -19 5 -12 2 6 2 18 0 25 -3 6 -5 1 -5 -13z"/>
<path d="M6660 8120 c0 -6 7 -10 15 -10 8 0 15 2 15 4 0 2 -7 6 -15 10 -8 3
-15 1 -15 -4z"/>
<path d="M6035 7550 c-4 -6 5 -10 19 -10 14 0 26 5 26 10 0 6 -9 10 -19 10
-11 0 -23 -4 -26 -10z"/>
<path d="M5725 7140 c-3 -5 -1 -10 4 -10 6 0 11 5 11 10 0 6 -2 10 -4 10 -3 0
-8 -4 -11 -10z"/>
<path d="M5606 6989 c-84 -31 -99 -39 -74 -39 34 0 146 41 152 55 3 8 4 15 3
14 -1 -1 -38 -14 -81 -30z"/>
<path d="M5555 6920 c-13 -5 -14 -9 -5 -9 8 0 24 4 35 9 13 5 14 9 5 9 -8 0
-24 -4 -35 -9z"/>
<path d="M8249 6892 c12 -8 11 -11 -3 -15 -15 -4 -15 -5 1 -3 19 1 21 19 1 24
-10 3 -10 1 1 -6z"/>
<path d="M7835 6880 c-3 -5 -1 -10 4 -10 6 0 11 5 11 10 0 6 -2 10 -4 10 -3 0
-8 -4 -11 -10z"/>
<path d="M7798 6833 c7 -3 16 -2 19 1 4 3 -2 6 -13 5 -11 0 -14 -3 -6 -6z"/>
<path d="M7567 6812 c-20 -22 -21 -32 -4 -32 6 0 17 11 24 25 13 29 3 33 -20
7z"/>
<path d="M8408 6783 c7 -3 16 -2 19 1 4 3 -2 6 -13 5 -11 0 -14 -3 -6 -6z"/>
<path d="M8027 6774 c-11 -11 3 -24 24 -24 12 0 19 5 17 13 -5 14 -31 21 -41
11z"/>
<path d="M7500 6740 c0 -5 5 -10 10 -10 6 0 10 5 10 10 0 6 -4 10 -10 10 -5 0
-10 -4 -10 -10z"/>
<path d="M7700 6729 c0 -5 5 -7 10 -4 6 3 10 8 10 11 0 2 -4 4 -10 4 -5 0 -10
-5 -10 -11z"/>
<path d="M7061 6698 c-17 -27 -13 -34 13 -30 11 2 16 -1 12 -7 -4 -6 -14 -11
-22 -11 -8 0 -14 -5 -14 -10 0 -6 -10 -2 -22 10 -12 11 -23 18 -26 16 -9 -10
10 -46 24 -46 11 0 14 -7 10 -22 -3 -13 -3 -17 0 -10 3 6 10 12 16 12 6 0 16
7 23 16 9 13 16 14 33 5 24 -13 44 5 21 20 -10 6 -8 9 9 9 13 0 20 -4 17 -10
-3 -5 -2 -10 4 -10 17 0 25 42 10 51 -19 12 -25 11 -39 -6 -19 -22 -28 -18
-35 15 -8 36 -15 38 -34 8z"/>
<path d="M7565 6709 c-10 -15 3 -25 16 -12 7 7 7 13 1 17 -6 3 -14 1 -17 -5z"/>
<path d="M7845 6700 c-3 -5 -1 -10 4 -10 6 0 11 5 11 10 0 6 -2 10 -4 10 -3 0
-8 -4 -11 -10z"/>
<path d="M7258 6663 c7 -3 16 -2 19 1 4 3 -2 6 -13 5 -11 0 -14 -3 -6 -6z"/>
<path d="M7203 6629 c-1 -10 5 -19 13 -19 17 0 18 14 1 28 -10 8 -13 6 -14 -9z"/>
<path d="M6966 6631 c-4 -7 -5 -15 -2 -18 9 -9 19 4 14 18 -4 11 -6 11 -12 0z"/>
<path d="M9750 6600 c8 -5 24 -10 34 -10 26 0 18 6 -19 14 -22 5 -26 4 -15 -4z"/>
<path d="M6910 6576 c0 -15 -2 -16 -15 -6 -13 11 -19 9 -36 -8 -16 -18 -17
-25 -7 -42 7 -11 20 -20 28 -20 9 0 21 -5 27 -11 13 -13 64 -8 63 6 0 6 -15
10 -33 10 -39 1 -72 18 -63 34 4 6 26 11 49 11 51 0 81 15 53 26 -11 4 -21 2
-27 -7 -7 -11 -11 -10 -23 6 -15 19 -15 19 -16 1z"/>
<path d="M7007 6566 c-3 -8 1 -22 9 -31 14 -13 19 -13 55 5 21 11 39 25 39 30
0 16 -40 12 -46 -4 -6 -15 -33 -11 -45 7 -3 5 -9 2 -12 -7z"/>
<path d="M9066 6569 c3 -5 24 -9 46 -9 23 0 39 2 36 5 -9 9 -88 13 -82 4z"/>
<path d="M9180 6570 c-20 -6 -14 -8 28 -9 28 -1 52 3 52 9 0 12 -44 12 -80 0z"/>
<path d="M7178 6563 c7 -3 16 -2 19 1 4 3 -2 6 -13 5 -11 0 -14 -3 -6 -6z"/>
<path d="M7066 6505 c4 -8 8 -15 10 -15 2 0 4 7 4 15 0 8 -4 15 -10 15 -5 0
-7 -7 -4 -15z"/>
<path d="M6813 6503 c-7 -3 -13 -14 -13 -26 0 -11 -10 -31 -22 -44 -17 -18
-18 -23 -6 -23 18 0 41 24 31 33 -3 4 6 7 21 7 24 0 26 3 21 23 -9 28 -17 36
-32 30z"/>
<path d="M9610 6495 c7 -9 15 -13 17 -11 7 7 -7 26 -19 26 -6 0 -6 -6 2 -15z"/>
<path d="M9725 6490 c10 -11 26 -20 37 -20 10 0 26 -4 36 -9 9 -5 33 -16 52
-25 19 -9 58 -29 85 -45 28 -16 54 -30 58 -30 19 -2 -7 19 -59 49 -31 17 -54
33 -52 36 7 6 80 -25 101 -44 16 -14 17 -12 17 26 0 45 -2 47 -28 32 -16 -10
-50 -2 -177 44 -19 7 -19 7 -2 -7 29 -24 6 -27 -37 -6 -50 24 -53 24 -31 -1z"/>
<path d="M6396 6441 c-4 -7 -5 -15 -2 -18 9 -9 19 4 14 18 -4 11 -6 11 -12 0z"/>
<path d="M6685 6440 c-3 -5 -3 -10 1 -10 3 0 -2 -12 -11 -27 -12 -18 -14 -28
-7 -31 22 -7 12 -20 -24 -32 -31 -11 -34 -14 -20 -22 11 -6 21 -6 30 1 7 6 27
11 44 13 35 2 41 12 16 26 -17 9 -16 34 1 75 5 12 3 17 -8 17 -9 0 -19 -4 -22
-10z"/>
<path d="M7173 6433 c-13 -2 -23 -8 -23 -12 0 -5 11 -6 25 -3 14 2 25 8 25 13
0 5 -1 8 -2 8 -2 -1 -13 -4 -25 -6z"/>
<path d="M6938 6415 c19 -14 25 -14 49 -1 l28 15 -50 1 c-47 0 -49 -1 -27 -15z"/>
<path d="M9704 6416 c11 -9 24 -16 30 -16 12 0 7 5 -24 19 -24 11 -24 11 -6
-3z"/>
<path d="M6615 6410 c3 -5 10 -10 16 -10 5 0 9 5 9 10 0 6 -7 10 -16 10 -8 0
-12 -4 -9 -10z"/>
<path d="M6430 6395 c0 -8 4 -15 10 -15 5 0 7 7 4 15 -4 8 -8 15 -10 15 -2 0
-4 -7 -4 -15z"/>
<path d="M6490 6400 c-13 -9 -13 -10 0 -10 8 0 22 5 30 10 13 9 13 10 0 10 -8
0 -22 -5 -30 -10z"/>
<path d="M6793 6383 c4 -3 1 -13 -6 -21 -10 -13 -9 -14 3 -9 8 4 23 10 33 13
26 10 20 24 -10 24 -14 0 -23 -3 -20 -7z"/>
<path d="M6865 6380 c-3 -5 1 -10 9 -10 9 0 16 5 16 10 0 6 -4 10 -9 10 -6 0
-13 -4 -16 -10z"/>
<path d="M9775 6382 c6 -6 24 -13 40 -17 21 -4 25 -3 15 3 -24 15 -67 26 -55
14z"/>
<path d="M6570 6339 c0 -5 5 -7 10 -4 6 3 10 8 10 11 0 2 -4 4 -10 4 -5 0 -10
-5 -10 -11z"/>
<path d="M9930 6320 c20 -13 43 -13 35 0 -3 6 -16 10 -28 10 -18 0 -19 -2 -7
-10z"/>
<path d="M5236 6284 c-6 -17 10 -28 19 -14 5 7 11 8 19 1 8 -7 12 -5 13 8 2
22 -43 26 -51 5z"/>
<path d="M6670 6280 c0 -5 5 -10 10 -10 6 0 10 5 10 10 0 6 -4 10 -10 10 -5 0
-10 -4 -10 -10z"/>
<path d="M6240 6269 c0 -5 5 -7 10 -4 6 3 10 8 10 11 0 2 -4 4 -10 4 -5 0 -10
-5 -10 -11z"/>
<path d="M6792 6255 c-11 -13 -9 -15 14 -15 22 0 25 2 14 15 -15 18 -12 18
-28 0z"/>
<path d="M6437 6183 c-4 -3 -7 -11 -7 -17 0 -6 5 -5 12 2 6 6 9 14 7 17 -3 3
-9 2 -12 -2z"/>
<path d="M6717 6183 c-4 -3 -7 -11 -7 -17 0 -6 5 -5 12 2 6 6 9 14 7 17 -3 3
-9 2 -12 -2z"/>
<path d="M6230 6160 c0 -5 5 -10 11 -10 5 0 7 5 4 10 -3 6 -8 10 -11 10 -2 0
-4 -4 -4 -10z"/>
<path d="M6170 6150 c0 -5 5 -10 10 -10 6 0 10 5 10 10 0 6 -4 10 -10 10 -5 0
-10 -4 -10 -10z"/>
<path d="M6155 6030 c-3 -5 -1 -10 4 -10 6 0 11 5 11 10 0 6 -2 10 -4 10 -3 0
-8 -4 -11 -10z"/>
<path d="M6177 5913 c-4 -3 -7 -11 -7 -17 0 -6 5 -5 12 2 6 6 9 14 7 17 -3 3
-9 2 -12 -2z"/>
<path d="M6114 5854 c0 -19 3 -34 7 -34 4 0 14 -3 23 -6 20 -8 21 10 1 30 -8
8 -15 19 -15 25 0 5 -4 12 -8 15 -4 2 -8 -11 -8 -30z"/>
<path d="M6010 5701 c0 -10 30 -24 37 -17 3 3 2 9 -2 15 -8 13 -35 15 -35 2z"/>
<path d="M5980 5417 c0 -16 21 -47 33 -47 8 0 9 3 1 8 -6 4 -16 16 -22 27 -6
11 -12 16 -12 12z"/>
<path d="M4950 5351 c0 -6 5 -13 10 -16 6 -3 10 1 10 9 0 9 -4 16 -10 16 -5 0
-10 -4 -10 -9z"/>
<path d="M5930 5345 c-10 -12 -10 -15 3 -15 8 0 17 7 21 15 3 8 2 15 -3 15 -5
0 -14 -7 -21 -15z"/>
<path d="M6010 5344 c0 -8 5 -12 10 -9 6 3 10 10 10 16 0 5 -4 9 -10 9 -5 0
-10 -7 -10 -16z"/>
<path d="M5928 5303 c7 -3 16 -2 19 1 4 3 -2 6 -13 5 -11 0 -14 -3 -6 -6z"/>
<path d="M5825 5260 c-3 -5 3 -10 14 -10 12 0 21 5 21 10 0 6 -6 10 -14 10 -8
0 -18 -4 -21 -10z"/>
<path d="M5815 5220 c3 -5 8 -10 11 -10 2 0 4 5 4 10 0 6 -5 10 -11 10 -5 0
-7 -4 -4 -10z"/>
<path d="M5895 5100 c-18 -8 -17 -9 8 -9 15 -1 27 4 27 9 0 12 -8 12 -35 0z"/>
<path d="M5823 5013 c-13 -2 -23 -11 -23 -19 0 -17 1 -17 34 -4 23 8 38 32 19
29 -5 -1 -18 -4 -30 -6z"/>
<path d="M4866 4969 c-26 -26 -27 -29 -8 -29 11 0 27 11 36 25 29 45 16 47
-28 4z"/>
<path d="M4780 4925 c-10 -12 -10 -15 3 -15 8 0 20 7 27 15 10 12 10 15 -3 15
-8 0 -20 -7 -27 -15z"/>
<path d="M5795 4920 c-3 -5 -1 -10 4 -10 6 0 11 5 11 10 0 6 -2 10 -4 10 -3 0
-8 -4 -11 -10z"/>
<path d="M4853 4890 c-3 -11 -8 -20 -12 -20 -3 0 -12 -9 -19 -20 -11 -18 -10
-20 8 -20 11 0 20 6 20 13 0 8 9 22 20 32 24 22 26 35 4 35 -9 0 -18 -9 -21
-20z"/>
<path d="M5820 4870 c-54 -15 -70 -23 -70 -31 0 -5 -10 -9 -22 -10 -13 0 -39
-7 -58 -14 l-35 -13 53 -1 c41 -1 62 5 95 26 41 27 46 29 67 32 6 0 10 6 10
11 0 11 -3 11 -40 0z"/>
<path d="M5840 4830 c-20 -12 -10 -19 14 -10 11 3 15 9 10 13 -6 3 -16 2 -24
-3z"/>
<path d="M5570 4800 c-20 -12 -5 -24 16 -12 9 5 12 12 7 15 -5 3 -15 2 -23 -3z"/>
<path d="M5567 4763 c-18 -17 -4 -25 34 -20 62 8 74 27 18 27 -25 0 -49 -3
-52 -7z"/>
<path d="M5665 4740 c-3 -5 1 -10 9 -10 9 0 16 5 16 10 0 6 -4 10 -9 10 -6 0
-13 -4 -16 -10z"/>
<path d="M5900 4720 c-9 -6 -10 -10 -3 -10 6 0 15 5 18 10 8 12 4 12 -15 0z"/>
<path d="M5770 4710 c-13 -9 -13 -10 0 -10 8 0 22 5 30 10 13 9 13 10 0 10 -8
0 -22 -5 -30 -10z"/>
<path d="M4760 4680 c0 -5 5 -10 10 -10 6 0 10 5 10 10 0 6 -4 10 -10 10 -5 0
-10 -4 -10 -10z"/>
<path d="M5665 4610 c-3 -6 -17 -7 -29 -4 -18 4 -25 1 -29 -16 -5 -21 -3 -22
41 -15 54 8 74 21 52 35 -19 12 -27 12 -35 0z"/>
<path d="M5735 4610 c-3 -5 1 -10 10 -10 9 0 13 5 10 10 -3 6 -8 10 -10 10 -2
0 -7 -4 -10 -10z"/>
<path d="M5880 4600 c-8 -5 -23 -7 -32 -4 -10 3 -18 0 -18 -7 0 -11 56 -6 68
6 10 10 -4 14 -18 5z"/>
<path d="M5695 4520 c4 -6 11 -8 16 -5 14 9 11 15 -7 15 -8 0 -12 -5 -9 -10z"/>
<path d="M5482 4504 c-15 -12 -13 -13 16 -14 20 0 32 5 32 13 0 17 -26 18 -48
1z"/>
<path d="M5570 4494 c-25 -15 -25 -15 10 -8 40 7 65 24 35 24 -11 -1 -31 -7
-45 -16z"/>
<path d="M5468 4452 c-9 -10 -29 -19 -44 -20 -15 -1 -30 -6 -33 -10 -3 -5 -14
-11 -23 -15 -11 -4 -15 -13 -11 -26 5 -19 7 -20 32 -6 14 8 55 24 91 36 76 26
95 39 57 39 -15 0 -27 5 -27 10 0 15 -23 11 -42 -8z"/>
<path d="M4760 4410 c0 -5 5 -10 10 -10 6 0 10 5 10 10 0 6 -4 10 -10 10 -5 0
-10 -4 -10 -10z"/>
<path d="M4784 4396 c-10 -8 -16 -17 -12 -21 11 -11 48 5 48 21 0 18 -11 18
-36 0z"/>
<path d="M5565 4380 c3 -5 8 -10 11 -10 2 0 4 5 4 10 0 6 -5 10 -11 10 -5 0
-7 -4 -4 -10z"/>
<path d="M5625 4380 c-3 -5 -1 -10 4 -10 6 0 11 5 11 10 0 6 -2 10 -4 10 -3 0
-8 -4 -11 -10z"/>
<path d="M5688 4373 c-10 -2 -18 -10 -18 -18 0 -16 34 -9 51 11 12 15 3 17
-33 7z"/>
<path d="M5510 4360 c0 -5 4 -10 9 -10 6 0 13 5 16 10 3 6 -1 10 -9 10 -9 0
-16 -4 -16 -10z"/>
<path d="M5470 4320 c0 -5 5 -10 10 -10 6 0 10 5 10 10 0 6 -4 10 -10 10 -5 0
-10 -4 -10 -10z"/>
<path d="M6345 4320 c-3 -5 -1 -10 4 -10 6 0 11 5 11 10 0 6 -2 10 -4 10 -3 0
-8 -4 -11 -10z"/>
<path d="M5410 4280 c0 -5 5 -10 10 -10 6 0 10 5 10 10 0 6 -4 10 -10 10 -5 0
-10 -4 -10 -10z"/>
<path d="M5235 4213 c-93 -69 -118 -83 -141 -83 -13 0 -24 -4 -24 -10 0 -5 7
-10 15 -10 22 0 19 -10 -16 -46 -17 -18 -38 -30 -45 -27 -21 8 -47 -17 -34
-32 15 -18 4 -39 -42 -75 -30 -25 -42 -30 -48 -20 -6 9 1 21 18 34 39 30 53
49 40 57 -15 10 -78 -68 -78 -95 0 -47 -23 -95 -66 -139 -24 -25 -40 -77 -24
-77 6 0 13 7 16 15 11 27 24 16 22 -16 -2 -19 2 -34 10 -36 8 -3 12 7 12 31 0
20 5 36 11 36 16 0 2 -100 -28 -190 -2 -8 -6 -44 -7 -80 -2 -36 -5 -93 -7
-128 -5 -69 11 -81 17 -12 2 24 9 49 15 56 6 7 8 17 5 23 -3 5 3 7 14 4 16 -4
18 -11 13 -32 -3 -14 -9 -28 -13 -31 -4 -3 -3 -16 1 -29 11 -29 23 -20 24 17
0 20 6 28 23 30 25 4 29 -10 7 -28 -9 -7 -13 -20 -10 -29 2 -9 1 -22 -4 -30
-5 -7 -4 -28 2 -47 8 -25 7 -38 -1 -46 -9 -9 -12 -6 -12 12 0 19 -2 22 -9 11
-6 -9 -6 -22 -1 -32 5 -9 6 -19 3 -23 -3 -3 -1 -6 5 -6 6 0 14 5 17 10 3 6 10
10 16 10 14 0 10 -32 -6 -54 -10 -13 -12 -23 -5 -31 7 -8 7 -22 2 -36 -11 -28
-4 -89 10 -89 6 0 7 16 3 38 -4 27 -2 42 8 50 10 9 14 9 15 -1 0 -6 4 -28 7
-48 5 -26 3 -40 -9 -52 -23 -23 -20 -26 19 -23 35 3 39 -1 35 -38 -1 -14 3
-17 15 -12 9 3 21 6 26 6 5 0 9 11 9 24 0 14 11 38 24 53 25 29 28 19 8 -30
-7 -16 -12 -31 -12 -34 0 -3 -10 -14 -22 -25 -17 -14 -19 -21 -10 -27 10 -6
10 -14 0 -37 -6 -16 -13 -42 -14 -59 -3 -65 -3 -65 -34 -65 -19 0 -34 7 -42
20 -7 11 -17 20 -21 20 -5 0 -30 21 -56 46 -61 60 -140 100 -217 107 -48 5
-65 3 -74 -8 -7 -8 -20 -15 -30 -15 -15 0 -19 -10 -22 -51 -2 -30 2 -55 9 -60
7 -7 13 -5 16 3 2 8 10 1 18 -17 19 -41 85 -105 108 -105 10 0 22 -7 25 -16 3
-8 10 -13 15 -10 4 3 17 -4 27 -15 10 -12 31 -27 46 -35 16 -8 28 -22 28 -31
0 -12 7 -14 30 -10 26 6 31 3 36 -18 3 -13 18 -30 34 -37 26 -11 48 -58 35
-77 -2 -4 9 -5 26 -3 22 3 29 0 29 -12 0 -9 -7 -16 -15 -16 -8 0 -15 -8 -15
-18 0 -13 7 -18 23 -18 16 1 23 -5 25 -21 4 -29 20 -29 32 0 5 12 9 18 10 12
0 -5 3 -42 6 -81 5 -69 4 -72 -23 -95 -15 -14 -34 -32 -42 -42 -12 -15 -11
-17 3 -17 9 0 20 8 23 18 7 17 42 51 54 52 8 0 20 -98 19 -152 -1 -30 2 -36
15 -32 11 5 15 -1 15 -21 0 -14 -5 -35 -10 -46 -8 -15 -7 -19 5 -19 8 0 15 -6
15 -12 0 -9 4 -8 10 2 7 11 10 4 10 -27 0 -33 4 -43 16 -43 14 0 16 17 13 139
-2 77 0 143 4 147 4 4 7 20 7 35 0 15 4 39 10 53 5 14 6 26 1 26 -13 0 -1 63
21 104 17 32 18 38 5 33 -19 -7 -32 35 -18 61 5 9 7 30 4 45 -4 20 1 35 18 53
16 17 20 27 12 35 -8 8 -15 4 -27 -12 -27 -39 -31 -11 -6 37 21 37 23 47 12
64 -10 17 -10 20 3 20 13 0 13 4 -2 28 -10 15 -20 29 -23 32 -12 12 -8 60 6
60 8 0 14 9 14 20 0 11 11 27 25 36 14 9 31 26 36 37 12 21 7 20 -43 -15 -33
-23 -34 -23 -42 5 -5 17 -8 19 -15 8 -5 -8 -11 -9 -15 -3 -3 5 5 26 19 46 14
20 25 41 25 46 0 5 8 13 17 19 10 5 15 13 11 17 -4 4 -14 1 -23 -6 -20 -17
-19 -1 2 22 12 14 14 21 5 30 -8 8 -17 1 -32 -26 -12 -20 -26 -33 -32 -30 -5
3 -18 -2 -29 -12 -22 -20 -26 -3 -4 20 8 8 15 23 15 33 1 17 2 17 15 -1 13
-17 15 -17 15 -4 0 9 -4 20 -10 23 -17 10 -11 36 15 71 14 18 25 35 25 38 0 7
-58 0 -82 -9 -29 -11 -21 3 24 45 23 21 39 42 35 46 -4 4 -7 2 -7 -4 0 -7 -7
-12 -15 -12 -8 0 -15 6 -15 14 0 24 -34 23 -58 -3 -24 -26 -39 -23 -27 6 5 10
7 21 7 26 -1 4 5 7 13 7 8 0 15 5 15 12 0 6 3 8 6 5 8 -8 54 76 54 97 0 15 31
48 76 80 39 29 3 27 -43 -2 -26 -16 -58 -33 -70 -36 -31 -10 -20 23 23 65 19
18 34 40 34 48 0 11 -6 8 -24 -8 -14 -13 -29 -20 -34 -17 -5 3 -12 -3 -15 -14
-3 -11 -11 -20 -19 -20 -8 0 -25 -14 -37 -31 -17 -23 -26 -28 -34 -20 -9 9 -9
14 -1 19 6 4 15 21 21 37 5 17 18 34 29 39 23 12 90 86 77 86 -6 0 -26 -11
-46 -24 -19 -13 -38 -22 -41 -19 -3 4 3 12 13 20 11 7 22 27 26 43 4 17 13 30
20 30 8 0 17 10 21 22 3 12 16 30 28 39 32 26 10 36 -24 10 -35 -25 -39 -15
-10 22 26 33 25 47 -4 47 -18 0 -23 -5 -23 -25 0 -25 -19 -55 -34 -55 -5 0 -6
7 -3 15 4 10 0 15 -11 15 -12 0 -15 5 -11 16 3 9 6 18 6 20 0 2 9 4 20 4 10 0
24 9 30 21 7 11 17 18 25 15 14 -5 125 97 125 115 0 6 -3 9 -7 7 -5 -3 -22
-10 -40 -17 -23 -9 -30 -17 -26 -28 4 -11 2 -14 -5 -9 -7 4 -12 1 -12 -9 0
-11 -6 -15 -18 -11 -12 4 -20 -1 -27 -17 -14 -30 -39 -32 -69 -6 -20 17 -23
25 -13 39 8 14 8 22 -1 32 -18 22 13 61 43 54 29 -7 37 2 24 26 -14 26 -1 40
71 74 61 30 79 49 35 38 -33 -8 -32 9 1 24 14 7 22 16 19 22 -6 10 -75 -27
-75 -41 0 -5 -11 -9 -24 -9 -14 0 -32 -7 -40 -16 -21 -20 -21 -41 -1 -24 13
11 14 10 9 -4 -4 -10 -13 -14 -23 -12 -19 7 -49 -10 -38 -21 5 -4 12 -1 17 7
6 8 10 11 10 5 0 -17 -19 -40 -26 -32 -4 4 -13 2 -19 -3 -7 -6 -20 -7 -30 -4
-15 6 -7 18 49 70 37 34 68 62 69 61 1 0 25 20 52 46 71 67 84 77 95 77 6 0
10 7 10 15 0 8 5 15 10 15 6 0 10 5 10 10 0 17 -13 11 -65 -27z m-212 -323 c3
-11 0 -23 -5 -27 -6 -3 -8 -1 -4 5 3 6 2 13 -4 17 -6 4 -8 11 -5 16 9 13 12
11 18 -11z m-48 0 c-3 -5 -11 -10 -16 -10 -6 0 -7 5 -4 10 3 6 11 10 16 10 6
0 7 -4 4 -10z m-42 -81 c-6 -6 -9 -17 -7 -24 3 -7 -1 -15 -9 -18 -8 -3 -14 2
-14 11 -2 29 6 42 24 42 12 0 14 -3 6 -11z m87 6 c0 -3 -11 -18 -25 -32 -31
-34 -44 -24 -14 11 21 24 39 34 39 21z m-168 -57 c-7 -7 -12 -8 -12 -2 0 6 3
14 7 17 3 4 9 5 12 2 2 -3 -1 -11 -7 -17z m222 3 c12 -19 -82 -101 -120 -106
-15 -1 -34 -11 -42 -21 -13 -18 -14 -17 -7 6 4 14 14 31 24 38 9 6 30 25 46
41 49 46 87 62 99 42z m-7 -138 c-15 -16 -17 -16 -17 -1 0 9 6 18 13 21 20 7
22 -2 4 -20z m34 -26 c-8 -8 -11 -7 -11 4 0 20 13 34 18 19 3 -7 -1 -17 -7
-23z m-75 -36 c-9 -10 -16 -21 -16 -25 0 -4 -13 -21 -30 -39 -16 -18 -30 -38
-30 -44 0 -7 -4 -13 -9 -13 -17 0 30 98 62 132 32 33 54 23 23 -11z m36 -18
c-10 -16 -22 -40 -26 -55 -6 -26 -24 -36 -39 -22 -6 6 9 37 28 60 6 6 19 24
30 39 10 15 21 22 23 16 2 -6 -5 -23 -16 -38z m-120 5 c-7 -7 -12 -8 -12 -2 0
6 3 14 7 17 3 4 9 5 12 2 2 -3 -1 -11 -7 -17z m-52 2 c0 -5 -4 -10 -10 -10 -5
0 -10 5 -10 10 0 6 5 10 10 10 6 0 10 -4 10 -10z m-5 -92 c-9 -39 -11 -42 -24
-34 -6 4 -8 13 -6 21 3 8 7 22 10 30 9 31 27 15 20 -17z m105 -8 c0 -5 -5 -10
-11 -10 -5 0 -7 5 -4 10 3 6 8 10 11 10 2 0 4 -4 4 -10z m-70 -40 c-24 -15
-36 -11 -14 4 10 8 21 12 24 10 2 -3 -2 -9 -10 -14z m160 -61 c0 -8 5 -8 15 1
13 11 15 8 15 -15 0 -24 3 -27 25 -23 30 6 32 -3 4 -20 -24 -15 -59 -7 -59 14
0 8 -7 14 -15 14 -15 0 -21 21 -8 33 10 11 23 8 23 -4z m0 -96 c0 -7 -4 -13
-10 -13 -5 0 -10 9 -10 20 0 11 -4 20 -10 20 -5 0 -10 8 -10 18 0 14 4 12 20
-8 11 -14 20 -31 20 -37z m-40 -13 c0 -16 -4 -30 -10 -30 -5 0 -10 5 -10 10 0
6 -4 10 -10 10 -5 0 -10 -7 -10 -17 0 -9 -2 -14 -5 -11 -3 3 -2 19 1 36 9 44
44 45 44 2z m-70 10 c0 -5 -4 -10 -10 -10 -5 0 -10 5 -10 10 0 6 5 10 10 10 6
0 10 -4 10 -10z m170 -95 c0 -12 -40 -84 -51 -90 -26 -17 -18 12 21 73 14 20
30 30 30 17z m-170 -69 c0 -2 -7 -9 -15 -16 -12 -10 -15 -10 -15 4 0 9 7 16
15 16 8 0 15 -2 15 -4z m175 -83 c-12 -18 -20 -23 -23 -15 -4 13 29 53 37 46
2 -2 -4 -16 -14 -31z m-75 12 c0 -8 -4 -15 -10 -15 -5 0 -10 7 -10 15 0 8 5
15 10 15 6 0 10 -7 10 -15z m90 -155 c0 -11 -4 -20 -10 -20 -5 0 -10 9 -10 20
0 11 5 20 10 20 6 0 10 -9 10 -20z m-54 -148 c-10 -10 -29 15 -21 28 6 9 10 8
17 -4 6 -10 7 -20 4 -24z m-6 -70 c0 -13 -12 -22 -22 -16 -10 6 -1 24 13 24 5
0 9 -4 9 -8z m21 -85 c-16 -16 -20 -5 -8 23 9 22 11 23 14 6 3 -10 0 -23 -6
-29z m59 -152 c0 -8 -4 -15 -10 -15 -5 0 -7 7 -4 15 4 8 8 15 10 15 2 0 4 -7
4 -15z m-156 -20 c3 -8 1 -15 -4 -15 -6 0 -10 7 -10 15 0 8 2 15 4 15 2 0 6
-7 10 -15z m56 -78 c0 -10 -4 -15 -10 -12 -5 3 -10 18 -10 33 0 21 2 24 10 12
5 -8 10 -23 10 -33z m60 -17 c0 -5 -4 -10 -10 -10 -5 0 -10 5 -10 10 0 6 5 10
10 10 6 0 10 -4 10 -10z m40 -260 c0 -5 -5 -10 -11 -10 -5 0 -7 5 -4 10 3 6 8
10 11 10 2 0 4 -4 4 -10z m16 -67 c-10 -10 -19 5 -10 18 6 11 8 11 12 0 2 -7
1 -15 -2 -18z"/>
<path d="M4727 4184 c-14 -15 -6 -34 14 -34 14 0 19 5 17 17 -3 18 -20 27 -31
17z"/>
<path d="M5240 4160 c0 -5 5 -10 10 -10 6 0 10 5 10 10 0 6 -4 10 -10 10 -5 0
-10 -4 -10 -10z"/>
<path d="M5283 4143 c-18 -7 -16 -33 1 -33 27 0 45 12 39 26 -5 14 -18 17 -40
7z"/>
<path d="M5267 4083 c-4 -3 -7 -11 -7 -17 0 -6 5 -5 12 2 6 6 9 14 7 17 -3 3
-9 2 -12 -2z"/>
<path d="M4760 4049 c0 -5 5 -7 10 -4 6 3 10 8 10 11 0 2 -4 4 -10 4 -5 0 -10
-5 -10 -11z"/>
<path d="M5355 4050 c-3 -5 -1 -10 4 -10 6 0 11 5 11 10 0 6 -2 10 -4 10 -3 0
-8 -4 -11 -10z"/>
<path d="M4741 4004 c0 -11 3 -14 6 -6 3 7 2 16 -1 19 -3 4 -6 -2 -5 -13z"/>
<path d="M5258 3986 c-23 -22 -57 -29 -75 -14 -15 11 -16 10 -10 -10 7 -29 -1
-52 -18 -52 -8 0 -16 -8 -20 -19 -3 -10 -14 -26 -25 -36 -10 -9 -16 -23 -13
-31 8 -21 21 -17 28 9 9 29 75 97 94 97 9 0 25 10 36 23 11 13 29 29 40 35 20
11 20 11 -2 12 -12 0 -28 -6 -35 -14z"/>
<path d="M4765 3940 c3 -5 8 -10 11 -10 2 0 4 5 4 10 0 6 -5 10 -11 10 -5 0
-7 -4 -4 -10z"/>
<path d="M4775 3870 c-3 -5 -1 -10 4 -10 6 0 11 5 11 10 0 6 -2 10 -4 10 -3 0
-8 -4 -11 -10z"/>
<path d="M4767 3673 c-4 -3 -7 -11 -7 -17 0 -6 5 -5 12 2 6 6 9 14 7 17 -3 3
-9 2 -12 -2z"/>
<path d="M5187 3602 c-30 -32 -18 -43 17 -17 14 10 17 18 10 25 -7 7 -16 5
-27 -8z"/>
<path d="M7230 3341 c0 -9 34 -21 60 -21 8 0 2 7 -14 15 -32 17 -46 19 -46 6z"/>
<path d="M5201 3265 c-34 -29 -40 -45 -16 -45 8 0 15 4 15 8 0 5 9 18 21 31
30 32 17 36 -20 6z"/>
<path d="M7120 3280 c0 -5 7 -7 15 -4 8 4 15 8 15 10 0 2 -7 4 -15 4 -8 0 -15
-4 -15 -10z"/>
<path d="M4877 3264 c-4 -4 -7 -14 -7 -23 0 -11 3 -12 11 -4 6 6 10 16 7 23
-2 6 -7 8 -11 4z"/>
<path d="M7295 3260 c3 -5 10 -10 16 -10 5 0 9 5 9 10 0 6 -7 10 -16 10 -8 0
-12 -4 -9 -10z"/>
<path d="M7420 3261 c0 -16 28 -20 47 -6 17 13 16 14 -14 15 -18 0 -33 -4 -33
-9z"/>
<path d="M7694 3251 c3 -5 15 -7 26 -4 28 7 25 13 -6 13 -14 0 -23 -4 -20 -9z"/>
<path d="M7854 3228 c-3 -4 15 -8 40 -8 25 0 46 2 46 4 0 8 -82 11 -86 4z"/>
<path d="M7521 3221 c3 -8 32 -24 65 -36 32 -12 66 -24 74 -28 8 -3 22 -8 30
-10 12 -4 11 -6 -2 -6 -17 -1 -23 -13 -19 -35 1 -4 -3 -14 -9 -20 -5 -7 -7
-16 -3 -19 11 -12 23 -7 23 9 0 10 6 14 18 10 54 -15 62 -18 62 -27 0 -5 -8
-9 -17 -10 -21 -1 45 -27 67 -27 10 0 11 1 3 5 -7 2 -13 9 -13 14 0 6 8 6 19
-1 31 -16 76 -12 95 9 16 18 16 20 -3 33 -12 8 -18 18 -14 22 4 4 -3 3 -17 -2
-16 -6 -33 -4 -52 5 -15 8 -28 16 -28 17 0 7 99 -3 123 -13 35 -14 47 -14 47
-1 0 5 -12 13 -27 16 -16 4 -33 11 -40 16 -6 5 -33 10 -60 13 -26 2 -48 4 -48
5 0 1 -23 3 -51 5 -29 2 -65 10 -82 19 -16 8 -49 18 -73 22 -24 4 -50 12 -58
18 -11 8 -13 8 -10 -3z m219 -96 c0 -10 10 -15 28 -15 15 0 34 -5 42 -11 11
-7 3 -8 -30 -3 -47 7 -85 26 -73 37 12 13 33 7 33 -8z"/>
<path d="M6986 3206 c6 -16 80 -37 144 -41 l45 -3 -40 13 c-22 8 -48 14 -58
14 -10 1 -20 8 -23 16 -4 9 -19 15 -40 15 -24 0 -32 -4 -28 -14z"/>
<path d="M6905 3201 c-3 -5 4 -13 16 -16 23 -8 34 -1 24 14 -8 13 -32 14 -40
2z"/>
<path d="M7768 3203 c12 -2 30 -2 40 0 9 3 -1 5 -23 4 -22 0 -30 -2 -17 -4z"/>
<path d="M7186 3175 c10 -8 25 -15 33 -15 11 0 9 4 -5 15 -10 8 -25 15 -33 15
-11 0 -9 -4 5 -15z"/>
<path d="M7315 3183 c6 -6 48 -15 95 -22 112 -16 163 -31 151 -45 -13 -15 43
-76 69 -76 11 0 23 -6 26 -13 2 -7 24 -14 51 -15 35 -1 44 1 35 10 -6 6 -25
11 -42 11 -16 0 -30 4 -30 9 0 4 -7 8 -15 8 -8 0 -15 8 -15 18 0 10 -13 23
-32 31 l-33 14 30 7 c17 4 24 9 18 10 -20 4 -26 6 -56 18 -46 19 -268 50 -252
35z"/>
<path d="M7250 3141 c0 -5 -10 -12 -22 -14 -20 -4 -19 -4 5 -6 18 -1 27 4 27
14 0 8 -2 15 -5 15 -3 0 -5 -4 -5 -9z"/>
<path d="M7280 3135 c0 -6 30 -18 70 -29 14 -4 8 2 -14 14 -40 20 -56 24 -56
15z"/>
<path d="M7008 3123 c7 -3 16 -2 19 1 4 3 -2 6 -13 5 -11 0 -14 -3 -6 -6z"/>
<path d="M8411 3126 c54 -48 123 -96 132 -93 7 3 4 8 -8 13 -11 4 -32 19 -46
33 -26 26 -63 51 -76 51 -3 0 -4 -2 -2 -4z"/>
<path d="M7065 3110 c-3 -5 1 -10 9 -10 9 0 16 5 16 10 0 6 -4 10 -9 10 -6 0
-13 -4 -16 -10z"/>
<path d="M7505 3110 c3 -5 10 -10 16 -10 5 0 9 5 9 10 0 6 -7 10 -16 10 -8 0
-12 -4 -9 -10z"/>
<path d="M8008 3107 c11 -12 82 -30 82 -20 0 4 -30 16 -70 28 -22 7 -23 6 -12
-8z"/>
<path d="M7165 3102 c6 -5 21 -13 35 -17 17 -5 22 -4 15 3 -5 5 -21 13 -35 17
-17 5 -22 4 -15 -3z"/>
<path d="M8125 3100 c27 -12 43 -12 25 0 -8 5 -22 9 -30 9 -10 0 -8 -3 5 -9z"/>
<path d="M8590 3093 c0 -6 9 -21 20 -34 15 -18 19 -20 20 -8 0 9 -9 24 -20 34
-11 10 -20 13 -20 8z"/>
<path d="M4871 3074 c0 -11 3 -14 6 -6 3 7 2 16 -1 19 -3 4 -6 -2 -5 -13z"/>
<path d="M8173 3084 c12 -13 80 -34 108 -34 15 0 32 -7 39 -15 9 -11 16 -13
24 -5 13 13 1 23 -44 37 -46 15 -137 27 -127 17z"/>
<path d="M7230 3077 c0 -3 15 -10 32 -16 18 -6 28 -7 23 -2 -12 10 -55 25 -55
18z"/>
<path d="M7970 3072 c0 -14 11 -21 26 -15 8 3 11 9 8 14 -7 11 -34 12 -34 1z"/>
<path d="M6915 3060 c-3 -5 1 -10 10 -10 9 0 13 5 10 10 -3 6 -8 10 -10 10 -2
0 -7 -4 -10 -10z"/>
<path d="M7160 3060 c0 -5 5 -10 11 -10 5 0 7 5 4 10 -3 6 -8 10 -11 10 -2 0
-4 -4 -4 -10z"/>
<path d="M8034 3048 c9 -12 16 -30 16 -40 0 -21 16 -24 23 -5 7 18 103 -36 99
-57 -2 -11 17 -25 59 -46 35 -16 68 -30 76 -30 7 0 13 -4 13 -10 0 -5 7 -10
16 -10 9 0 38 -11 65 -25 37 -18 49 -21 49 -10 0 7 -10 17 -22 21 -12 4 -31
17 -41 30 -10 13 -25 24 -33 24 -8 0 -14 5 -14 10 0 13 6 13 31 -1 38 -20 43
-3 6 20 -20 12 -41 20 -47 16 -5 -3 -18 -1 -27 4 -15 8 -10 10 22 11 58 0 83
-9 89 -33 3 -12 19 -31 36 -42 16 -11 30 -24 30 -29 0 -5 -6 -4 -12 2 -7 5
-24 13 -38 17 -21 7 -20 3 13 -27 20 -20 37 -42 37 -50 0 -10 9 -15 29 -14 32
1 32 26 0 26 -11 0 -19 7 -19 16 0 13 3 14 13 5 8 -6 31 -18 53 -26 l39 -16
-37 33 c-21 18 -53 46 -73 62 -20 16 -33 31 -30 34 3 3 11 0 17 -6 15 -15 38
-16 38 -2 0 6 -5 10 -11 10 -6 0 -36 23 -68 50 -32 28 -63 50 -70 50 -7 0 -3
-9 10 -21 l24 -20 -25 6 c-14 4 -29 12 -35 19 -12 14 -61 36 -80 36 -27 0 -15
-20 15 -26 40 -8 61 -33 23 -27 -16 3 -35 7 -43 10 -8 3 -33 7 -55 8 -43 2
-125 34 -125 48 0 5 7 7 15 3 8 -3 15 -2 15 3 0 7 -46 21 -72 21 -5 0 -2 -10
6 -22z m224 -115 c60 -39 52 -46 -13 -11 -30 16 -55 31 -55 34 0 11 30 1 68
-23z"/>
<path d="M8700 3060 c0 -8 5 -22 10 -30 9 -13 10 -13 10 0 0 8 -5 22 -10 30
-9 13 -10 13 -10 0z"/>
<path d="M7915 3040 c-15 -16 -15 -18 0 -24 25 -9 47 -7 40 4 -4 6 5 10 21 10
33 0 28 8 -14 19 -24 7 -34 5 -47 -9z"/>
<path d="M7301 3046 c2 -2 18 -6 34 -10 22 -5 26 -4 15 4 -14 9 -59 15 -49 6z"/>
<path d="M7475 3040 c3 -5 16 -10 28 -10 18 0 19 2 7 10 -20 13 -43 13 -35 0z"/>
<path d="M8124 3041 c-4 -5 52 -31 66 -31 5 0 6 9 3 20 -4 14 -13 19 -35 17
-16 -1 -32 -4 -34 -6z"/>
<path d="M8479 3000 c29 -28 56 -50 61 -50 4 0 15 -9 24 -19 12 -13 14 -21 6
-26 -8 -5 -8 -10 0 -20 7 -8 7 -16 2 -19 -6 -3 -15 1 -22 9 -7 8 -17 15 -23
15 -6 0 0 -11 13 -25 18 -19 26 -22 32 -13 6 10 15 5 33 -16 13 -17 22 -33 20
-36 -5 -9 53 -64 83 -79 13 -7 4 7 -23 33 -25 25 -45 50 -45 56 0 6 -10 24
-21 40 -12 16 -19 37 -17 48 4 13 -4 25 -23 38 -16 10 -32 27 -35 37 -3 9 -12
17 -20 17 -8 0 -14 4 -14 9 0 9 -65 51 -78 51 -4 0 17 -23 47 -50z"/>
<path d="M6960 3017 c0 -9 5 -19 12 -23 19 -12 78 -15 78 -4 0 5 -12 10 -27
10 -14 0 -35 7 -45 17 -16 14 -18 15 -18 0z"/>
<path d="M8378 3023 c7 -3 16 -2 19 1 4 3 -2 6 -13 5 -11 0 -14 -3 -6 -6z"/>
<path d="M7840 3005 c6 -8 9 -19 5 -25 -7 -12 35 -30 70 -30 13 0 27 -5 31
-12 5 -8 2 -9 -10 -5 -9 4 -25 2 -35 -4 -20 -13 -82 10 -114 43 -19 19 -73 26
-62 8 4 -6 23 -17 43 -26 30 -12 34 -17 22 -25 -12 -9 -12 -10 3 -5 11 3 36
-5 61 -19 24 -14 52 -25 64 -25 12 0 22 -4 22 -9 0 -6 8 -10 18 -11 58 -3 72
-6 68 -16 -3 -7 11 -14 32 -17 20 -3 46 -8 56 -13 12 -4 17 -4 13 3 -3 5 -24
15 -46 23 -23 7 -41 16 -41 19 0 11 -60 33 -75 27 -9 -3 -12 0 -8 10 3 9 13
12 23 9 21 -7 33 18 17 34 -7 7 2 5 18 -3 17 -9 37 -16 46 -16 22 0 79 -29 79
-40 0 -11 89 -64 95 -58 3 3 -12 16 -33 29 -20 13 -37 31 -37 39 0 8 -15 22
-32 30 -38 18 -41 27 -10 33 21 3 20 4 -7 16 -16 6 -37 9 -45 6 -14 -6 -14 -8
2 -20 11 -8 14 -16 8 -20 -6 -3 -21 5 -34 19 -17 18 -40 28 -83 35 -32 5 -72
14 -87 20 -40 15 -52 14 -37 -4z"/>
<path d="M8600 3013 c0 -18 34 -93 41 -93 5 0 9 -5 9 -11 0 -5 -3 -8 -7 -6 -5
3 -8 -5 -8 -18 0 -13 3 -21 7 -19 4 3 10 -7 14 -21 6 -23 72 -80 82 -71 2 3
-14 20 -35 39 -21 20 -34 39 -29 44 5 4 11 3 13 -4 2 -7 11 -9 19 -6 24 9 15
22 -18 25 -17 2 -34 9 -36 17 -3 8 0 11 7 7 17 -11 14 0 -20 64 -29 56 -39 70
-39 53z"/>
<path d="M7776 3001 c5 -5 20 -12 34 -15 24 -7 24 -6 6 8 -21 17 -57 23 -40 7z"/>
<path d="M7680 2978 c0 -15 11 -29 30 -40 37 -21 40 -5 5 35 -29 33 -35 34
-35 5z"/>
<path d="M6860 2986 c0 -2 7 -7 16 -10 8 -3 12 -2 9 4 -6 10 -25 14 -25 6z"/>
<path d="M8672 2965 c15 -38 28 -54 28 -34 0 7 -9 25 -20 39 l-21 25 13 -30z"/>
<path d="M8740 2984 c0 -4 22 -34 49 -69 27 -34 57 -77 67 -96 14 -27 19 -30
22 -16 2 11 -15 42 -40 75 -24 31 -52 69 -61 85 -16 24 -37 37 -37 21z"/>
<path d="M8720 2968 c0 -9 5 -20 10 -23 13 -8 13 5 0 25 -8 13 -10 13 -10 -2z"/>
<path d="M7050 2965 c0 -7 63 -45 75 -45 5 0 -7 11 -27 25 -37 25 -48 30 -48
20z"/>
<path d="M7388 2963 c6 -2 18 -2 25 0 6 3 1 5 -13 5 -14 0 -19 -2 -12 -5z"/>
<path d="M8482 2951 c7 -12 19 -21 26 -21 17 0 7 17 -19 31 -18 9 -19 9 -7
-10z"/>
<path d="M7030 2922 c0 -5 7 -13 16 -16 10 -4 14 -1 12 6 -5 15 -28 23 -28 10z"/>
<path d="M7275 2920 c3 -5 13 -10 21 -10 8 0 12 5 9 10 -3 6 -13 10 -21 10 -8
0 -12 -4 -9 -10z"/>
<path d="M7370 2920 c20 -13 33 -13 25 0 -3 6 -14 10 -23 10 -15 0 -15 -2 -2
-10z"/>
<path d="M8006 2904 c-3 -8 -2 -12 3 -9 5 3 12 1 16 -5 4 -6 11 -8 16 -4 5 3
16 0 24 -6 10 -9 15 -9 15 -1 0 9 -49 41 -63 41 -3 0 -8 -7 -11 -16z"/>
<path d="M8750 2891 c0 -25 18 -37 33 -22 8 8 8 11 -1 11 -7 0 -12 7 -12 15 0
8 -4 15 -10 15 -5 0 -10 -9 -10 -19z"/>
<path d="M8920 2900 c0 -5 5 -10 11 -10 5 0 7 5 4 10 -3 6 -8 10 -11 10 -2 0
-4 -4 -4 -10z"/>
<path d="M7113 2865 c15 -14 33 -25 40 -25 7 1 -1 12 -18 25 -39 32 -58 32
-22 0z"/>
<path d="M8200 2870 c22 -17 70 -28 70 -15 0 6 -69 35 -84 35 -6 0 0 -9 14
-20z"/>
<path d="M4957 2863 c-2 -5 -5 -39 -6 -76 -1 -47 2 -66 10 -61 6 3 8 15 5 27
-8 30 11 59 35 52 13 -4 19 -2 19 9 0 19 -23 33 -28 18 -5 -17 -32 -15 -32 3
0 8 5 15 10 15 6 0 10 5 10 10 0 12 -17 13 -23 3z"/>
<path d="M7370 2860 c0 -5 7 -10 16 -10 8 0 12 5 9 10 -3 6 -10 10 -16 10 -5
0 -9 -4 -9 -10z"/>
<path d="M5250 2849 c0 -5 5 -7 10 -4 6 3 10 8 10 11 0 2 -4 4 -10 4 -5 0 -10
-5 -10 -11z"/>
<path d="M8150 2831 c24 -20 40 -26 40 -16 0 2 -15 12 -32 20 l-33 16 25 -20z"/>
<path d="M8295 2834 c11 -9 47 -29 80 -46 52 -27 57 -28 41 -9 -21 23 -109 71
-129 71 -7 0 -3 -8 8 -16z"/>
<path d="M9002 2791 c-1 -36 3 -59 9 -56 11 8 12 85 0 103 -5 8 -8 -10 -9 -47z"/>
<path d="M7325 2830 c3 -5 11 -10 16 -10 6 0 7 5 4 10 -3 6 -11 10 -16 10 -6
0 -7 -4 -4 -10z"/>
<path d="M7185 2820 c3 -5 11 -10 16 -10 6 0 7 5 4 10 -3 6 -11 10 -16 10 -6
0 -7 -4 -4 -10z"/>
<path d="M8250 2816 c0 -8 91 -48 96 -43 3 2 -15 14 -39 26 -43 21 -57 25 -57
17z"/>
<path d="M8760 2806 c0 -8 5 -18 10 -21 6 -3 10 1 10 9 0 8 -4 18 -10 21 -5 3
-10 -1 -10 -9z"/>
<path d="M7075 2800 c3 -5 10 -10 15 -10 5 0 31 -14 59 -31 27 -17 56 -29 63
-27 7 3 -20 21 -61 41 -79 40 -85 42 -76 27z"/>
<path d="M8801 2805 c-1 -14 37 -61 43 -54 3 2 -6 18 -19 34 -13 17 -24 26
-24 20z"/>
<path d="M9100 2794 c0 -8 5 -12 10 -9 6 4 8 11 5 16 -9 14 -15 11 -15 -7z"/>
<path d="M4505 2780 c3 -5 8 -10 11 -10 2 0 4 5 4 10 0 6 -5 10 -11 10 -5 0
-7 -4 -4 -10z"/>
<path d="M8095 2780 c3 -5 11 -10 16 -10 6 0 7 5 4 10 -3 6 -11 10 -16 10 -6
0 -7 -4 -4 -10z"/>
<path d="M8140 2756 c0 -2 8 -10 18 -17 15 -13 16 -12 3 4 -13 16 -21 21 -21
13z"/>
<path d="M8580 2747 c20 -18 70 -38 70 -29 0 8 -63 42 -77 42 -4 0 -1 -6 7
-13z"/>
<path d="M8775 2750 c3 -5 8 -10 11 -10 2 0 4 5 4 10 0 6 -5 10 -11 10 -5 0
-7 -4 -4 -10z"/>
<path d="M6840 2742 c0 -9 40 -35 46 -29 6 6 -25 37 -37 37 -5 0 -9 -3 -9 -8z"/>
<path d="M9140 2735 c0 -8 5 -15 10 -15 6 0 10 7 10 15 0 8 -4 15 -10 15 -5 0
-10 -7 -10 -15z"/>
<path d="M8550 2720 c0 -5 5 -10 11 -10 5 0 7 5 4 10 -3 6 -8 10 -11 10 -2 0
-4 -4 -4 -10z"/>
<path d="M9077 2723 c-4 -3 -7 -18 -7 -33 0 -14 -4 -30 -8 -35 -5 -6 -6 -21
-1 -35 l7 -25 1 28 c1 15 4 27 9 27 4 0 8 18 8 40 1 42 1 44 -9 33z"/>
<path d="M4530 2690 c0 -5 5 -10 10 -10 6 0 10 5 10 10 0 6 -4 10 -10 10 -5 0
-10 -4 -10 -10z"/>
<path d="M9170 2660 c0 -19 3 -21 12 -12 9 9 9 15 0 24 -9 9 -12 7 -12 -12z"/>
<path d="M8995 2640 c-3 -5 -1 -10 4 -10 6 0 11 5 11 10 0 6 -2 10 -4 10 -3 0
-8 -4 -11 -10z"/>
<path d="M6984 2625 c11 -8 25 -15 30 -15 6 0 2 7 -8 15 -11 8 -25 15 -30 15
-6 0 -2 -7 8 -15z"/>
<path d="M4610 2590 c0 -5 7 -10 16 -10 8 0 12 5 9 10 -3 6 -10 10 -16 10 -5
0 -9 -4 -9 -10z"/>
<path d="M4485 2376 c2 -77 11 -122 42 -193 16 -37 17 -60 3 -68 -7 -4 -7 -12
0 -25 13 -25 19 -127 9 -170 -9 -38 15 -149 35 -162 8 -5 8 -13 0 -25 -6 -10
-8 -27 -3 -38 4 -11 8 -32 8 -47 1 -16 6 -28 12 -28 6 0 10 -12 9 -27 -3 -39
10 -91 26 -104 8 -6 14 -18 14 -25 0 -8 5 -14 11 -14 5 0 7 -5 4 -10 -4 -6
-11 -8 -16 -5 -5 4 -9 -3 -9 -14 0 -12 5 -21 11 -21 6 0 8 -9 4 -20 -4 -12 0
-26 9 -36 9 -8 16 -25 16 -37 0 -95 76 244 86 383 3 41 7 88 9 103 4 22 0 30
-14 34 -20 5 -38 64 -26 83 4 6 -1 13 -9 16 -18 7 -21 46 -5 76 8 14 8 23 0
31 -6 6 -11 18 -11 28 0 9 -9 28 -20 42 -26 33 -25 40 3 33 18 -4 23 -1 23 15
0 11 -5 18 -11 16 -6 -3 -11 13 -12 37 -2 22 -10 46 -18 52 -21 15 -19 22 8
26 19 3 12 13 -57 78 -43 41 -90 80 -105 86 l-27 11 1 -81z"/>
<path d="M4999 2265 c-3 -5 -6 -28 -7 -50 -2 -33 0 -37 8 -22 6 9 10 32 8 50
-2 17 -6 28 -9 22z"/>
<path d="M7929 2245 c-2 -1 -49 -6 -104 -9 -108 -7 -315 -32 -379 -46 -22 -5
-44 -6 -48 -4 -5 3 -15 -2 -24 -10 -8 -9 -31 -16 -49 -16 -19 0 -38 -6 -42
-12 -10 -16 -48 -38 -65 -38 -7 0 -42 -16 -78 -35 -36 -19 -80 -42 -97 -50
-18 -8 -33 -20 -33 -26 0 -5 -5 -7 -11 -4 -6 4 -17 -2 -26 -14 -8 -12 -20 -21
-26 -20 -25 3 -37 -2 -37 -14 0 -17 -45 -58 -84 -77 -16 -8 -40 -24 -52 -35
-14 -12 -37 -20 -60 -20 -21 0 -39 -6 -41 -12 -3 -9 6 -13 26 -13 29 0 46 -19
19 -21 -60 -2 -102 -9 -112 -19 -8 -9 -6 -11 10 -6 14 4 30 0 45 -13 23 -19
23 -20 4 -21 -11 0 -27 -9 -35 -20 -19 -26 -34 -26 -27 1 l6 21 -24 -22 c-12
-12 -25 -18 -27 -13 -3 4 -3 2 -2 -4 2 -7 -5 -17 -16 -23 -21 -11 -18 -37 8
-58 12 -9 13 -15 5 -23 -6 -6 -9 -18 -6 -27 5 -12 1 -14 -25 -9 -18 4 -32 4
-32 0 0 -11 35 -32 53 -33 10 0 16 -4 12 -9 -3 -5 -1 -12 5 -16 16 -10 11 -26
-7 -24 -31 3 -36 -1 -23 -16 10 -12 10 -18 0 -30 -7 -9 -10 -19 -6 -23 4 -4
15 3 24 14 20 26 61 48 70 39 4 -4 -1 -13 -11 -20 -12 -9 -14 -15 -7 -20 17
-10 41 15 35 36 -8 23 -1 24 19 3 13 -13 16 -13 16 -1 0 19 81 51 91 36 17
-28 -23 -71 -50 -55 -5 3 -14 -1 -21 -9 -7 -8 -20 -15 -30 -15 -10 0 -20 -7
-24 -15 -4 -13 -2 -14 14 -5 11 6 25 8 31 4 6 -3 19 2 30 12 10 9 21 15 24 12
9 -8 -6 -38 -16 -33 -11 7 -69 -22 -69 -35 0 -5 -7 -7 -15 -4 -8 4 -17 -1 -21
-10 -3 -9 -12 -16 -20 -16 -16 0 -19 -16 -5 -25 6 -3 13 0 18 7 4 7 21 20 37
28 23 12 30 12 33 3 6 -18 23 -16 23 2 0 9 9 15 25 15 14 0 25 4 25 9 0 5 18
8 40 7 27 -2 40 2 40 11 0 7 -7 13 -16 13 -9 0 -14 5 -12 12 6 18 28 22 28 5
0 -8 7 -18 16 -21 22 -8 24 -8 24 8 0 7 7 19 16 26 13 11 16 10 21 -10 5 -21
7 -21 13 -6 3 10 9 16 13 14 16 -7 37 42 32 74 -8 41 -11 44 -31 27 -14 -12
-16 -11 -13 5 3 12 13 20 26 21 26 2 44 15 21 15 -21 0 -31 29 -17 46 6 7 20
14 32 16 15 2 21 9 19 21 -2 14 2 18 20 15 17 -2 22 1 20 15 -2 10 3 17 13 17
8 0 15 -4 15 -10 0 -5 7 -7 15 -4 9 4 15 0 15 -10 0 -9 7 -16 16 -16 8 0 13 4
9 9 -10 17 13 21 29 5 9 -9 23 -13 31 -10 8 3 15 0 15 -7 0 -7 7 -3 15 7 11
15 17 16 28 7 8 -6 21 -9 30 -5 10 3 20 -2 27 -15 9 -17 8 -21 -5 -21 -8 0
-15 -7 -15 -15 0 -17 17 -20 22 -4 2 6 23 12 46 13 42 1 55 12 27 22 -8 4 -15
12 -15 19 0 8 -5 17 -12 21 -8 5 -9 2 -5 -9 4 -12 1 -17 -11 -17 -17 1 -62 33
-62 44 0 11 28 6 33 -6 4 -10 8 -9 16 2 6 9 7 16 1 18 -18 6 -10 22 11 22 12
0 18 4 13 11 -4 7 -23 9 -50 5 -35 -4 -44 -3 -44 9 0 8 -4 15 -10 15 -5 0 -10
7 -10 16 0 11 5 14 16 10 12 -5 14 -1 9 15 -7 20 -5 21 31 14 22 -4 45 -11 52
-17 6 -6 12 -8 12 -4 0 4 13 0 30 -9 16 -8 38 -15 48 -15 11 0 22 -7 25 -14 3
-8 25 -20 48 -26 23 -7 52 -18 64 -26 35 -23 151 -54 254 -69 94 -13 121 -12
121 7 0 6 6 5 15 -2 21 -18 19 -30 -7 -31 -18 -1 -19 -2 -5 -6 10 -3 29 2 41
11 13 8 43 15 67 16 24 0 56 0 70 1 14 0 30 -1 35 -2 12 -3 125 11 144 18 8 3
28 5 43 4 26 -2 27 -1 15 18 -7 12 -20 19 -28 17 -8 -3 -55 -7 -105 -10 -66
-4 -79 -3 -49 4 114 24 117 26 150 87 18 32 35 74 39 93 9 42 10 142 1 193 -3
22 -2 37 4 37 6 0 10 -8 10 -17 0 -10 9 -29 20 -43 l20 -25 -6 48 c-5 32 -3
47 5 47 6 0 11 -4 11 -10 0 -5 9 -10 20 -10 11 0 20 -4 20 -10 0 -5 -5 -10
-12 -10 -6 0 -8 -3 -5 -6 4 -4 13 -1 22 6 16 13 18 10 28 -35 5 -19 5 -19 12
3 9 27 22 28 30 3 4 -12 12 -17 24 -14 12 3 29 -8 50 -34 62 -72 83 -94 88
-89 3 3 13 -5 23 -17 10 -12 30 -22 46 -22 18 -1 30 -8 32 -18 4 -22 -26 -33
-49 -19 -24 15 -25 15 -25 -5 -1 -10 -4 -25 -8 -34 -5 -12 -1 -18 13 -22 24
-6 27 -29 8 -46 -9 -7 -24 -8 -45 -2 -17 5 -44 6 -59 2 -26 -7 -27 -8 -7 -15
12 -3 30 -4 40 0 18 5 18 5 2 -9 -10 -8 -15 -17 -11 -20 3 -4 -2 -9 -11 -13
-9 -3 -16 -11 -16 -16 0 -6 6 -6 14 1 11 9 16 9 23 -2 14 -24 53 -27 89 -6 41
23 58 24 51 4 -8 -21 10 -29 21 -9 8 15 11 15 40 0 17 -9 33 -12 36 -7 8 12
-4 20 -20 14 -8 -3 -14 0 -14 6 0 6 -7 11 -15 11 -8 0 -15 5 -15 10 0 12 37
13 44 1 5 -7 65 -21 116 -27 32 -3 33 -4 14 -19 -17 -15 -16 -15 12 -1 34 16
44 13 44 -14 0 -14 -10 -17 -51 -16 -76 2 -78 -9 -3 -21 60 -9 67 -8 71 8 4
15 15 17 67 15 45 -1 71 4 92 16 21 13 24 18 11 18 -10 0 -27 -5 -38 -10 -13
-8 -25 -7 -40 1 -17 8 -23 8 -29 -1 -4 -7 -13 -9 -20 -5 -10 6 -9 11 5 21 16
12 16 14 1 30 -14 13 -22 14 -39 6 -37 -18 -67 -24 -67 -13 0 5 9 13 20 16 26
8 26 41 -1 48 -12 3 -18 10 -15 16 4 5 -7 30 -24 54 -16 25 -30 50 -30 55 0
18 -143 152 -162 152 -10 0 -18 7 -18 15 0 8 -9 15 -19 15 -13 0 -21 8 -23 23
-2 14 -11 23 -25 25 -12 2 -25 12 -28 23 -10 31 4 37 24 10 12 -15 24 -22 34
-18 11 4 14 2 10 -9 -4 -10 -1 -15 8 -13 26 4 53 -14 113 -73 33 -32 63 -58
67 -58 3 0 9 -10 13 -22 l6 -23 19 24 18 24 18 -26 c9 -15 23 -27 30 -27 8 0
22 -11 33 -25 30 -38 45 -31 25 11 -15 31 -15 36 -3 44 16 10 8 13 -25 11 -19
-2 -18 0 4 19 13 11 18 20 12 20 -6 0 -11 7 -11 15 0 9 -6 15 -13 13 -7 -2
-13 2 -14 7 0 6 3 9 8 8 5 -2 9 1 9 7 0 5 -15 7 -34 5 -30 -4 -33 -2 -29 15 3
11 0 26 -6 33 -6 8 -8 16 -6 19 3 3 -6 3 -20 0 -18 -3 -32 2 -46 17 -11 11
-30 21 -42 21 -20 1 -20 2 -4 11 9 5 17 15 17 21 0 9 -3 9 -12 0 -17 -17 -55
-15 -62 3 -4 12 -10 13 -24 6 -11 -6 -24 -6 -33 0 -7 5 -30 9 -49 9 -20 0 -40
4 -45 9 -11 9 -111 37 -185 51 -25 5 -56 12 -70 16 -25 8 -514 16 -521 9z
m551 -65 c0 -5 -11 -10 -25 -10 -14 0 -25 5 -25 10 0 6 11 10 25 10 14 0 25
-4 25 -10z m64 -23 c-8 -5 -22 -6 -31 -3 -12 5 -13 9 -3 21 9 11 16 12 31 2
16 -10 16 -13 3 -20z m71 -17 c-3 -5 -10 -10 -16 -10 -5 0 -9 5 -9 10 0 6 7
10 16 10 8 0 12 -4 9 -10z m-145 -14 c0 -3 -4 -8 -10 -11 -5 -3 -10 -1 -10 4
0 6 5 11 10 11 6 0 10 -2 10 -4z m-950 -15 c0 -6 -4 -13 -10 -16 -5 -3 -10 1
-10 9 0 9 5 16 10 16 6 0 10 -4 10 -9z m995 -1 c3 -5 1 -10 -4 -10 -6 0 -11 5
-11 10 0 6 2 10 4 10 3 0 8 -4 11 -10z m175 0 c0 -13 -20 -13 -40 0 -12 8 -9
10 13 10 15 0 27 -4 27 -10z m-1123 -30 c-4 -16 -4 -30 -1 -30 9 0 34 28 34
38 0 6 6 12 13 15 11 4 10 -10 -5 -61 -13 -49 -17 -84 -12 -131 6 -64 33 -143
53 -155 15 -9 14 -36 -1 -36 -25 0 -98 43 -98 57 0 13 -2 13 -16 2 -15 -12
-16 -11 -10 7 6 18 3 21 -18 17 -23 -5 -58 11 -156 68 -52 30 -52 38 8 127 44
67 73 95 57 55 -11 -27 -24 -73 -21 -73 11 0 55 49 61 68 5 18 25 32 25 17 0
-14 -28 -63 -45 -77 -11 -9 -17 -19 -13 -23 7 -7 118 97 118 111 0 10 20 34
28 34 3 0 2 -13 -1 -30z m983 5 c0 -8 -4 -15 -10 -15 -5 0 -10 7 -10 15 0 8 5
15 10 15 6 0 10 -7 10 -15z m-434 -33 c2 -32 14 -41 14 -10 0 20 6 27 28 31
52 10 102 -10 71 -29 -8 -4 -7 -9 2 -15 9 -5 13 -26 11 -61 -4 -88 -5 -89 -75
-86 l-62 3 -12 55 c-6 30 -12 74 -12 98 -1 36 2 43 17 40 10 -2 17 -13 18 -26z
m484 -2 c0 -21 -15 -27 -25 -10 -7 12 2 30 16 30 5 0 9 -9 9 -20z m68 -27 c-2
-11 8 -22 25 -31 15 -7 27 -19 27 -27 0 -8 12 -25 26 -38 22 -21 23 -24 6 -22
-11 0 -34 15 -52 33 -17 18 -35 32 -40 32 -5 0 -15 13 -23 29 -13 27 -13 30 2
34 29 8 32 7 29 -10z m-812 -83 c1 -26 15 -134 21 -157 5 -21 2 -23 -34 -23
-36 0 -41 4 -57 38 -10 20 -21 65 -24 100 l-5 63 49 -3 c35 -2 49 -7 50 -18z
m1214 4 c0 -2 -7 -4 -15 -4 -8 0 -15 4 -15 10 0 5 7 7 15 4 8 -4 15 -8 15 -10z
m-170 -44 c0 -5 -5 -10 -11 -10 -5 0 -7 5 -4 10 3 6 8 10 11 10 2 0 4 -4 4
-10z m64 -52 c20 -18 20 -18 0 -18 -10 0 -27 12 -37 25 -17 24 -17 24 0 18 10
-4 27 -15 37 -25z m-2134 -28 c0 -5 -4 -10 -10 -10 -5 0 -10 5 -10 10 0 6 5
10 10 10 6 0 10 -4 10 -10z m70 -34 c0 -3 -4 -8 -10 -11 -5 -3 -10 -1 -10 4 0
6 5 11 10 11 6 0 10 -2 10 -4z m2088 -71 c3 -14 -1 -16 -30 -10 -46 10 -57 23
-34 41 17 12 23 12 40 0 12 -7 23 -21 24 -31z m-2178 21 c0 -3 -4 -8 -10 -11
-5 -3 -10 -1 -10 4 0 6 5 11 10 11 6 0 10 -2 10 -4z m1996 -43 c-11 -11 -17 4
-9 23 7 18 8 18 11 1 2 -10 1 -21 -2 -24z m97 22 c-4 -15 -36 -12 -41 3 -3 9
3 13 19 10 13 -1 23 -7 22 -13z m-1645 -12 c5 -18 -23 -16 -39 3 -11 14 -10
15 11 12 13 -1 25 -9 28 -15z m-478 -23 c0 -5 -4 -10 -10 -10 -5 0 -10 5 -10
10 0 6 5 10 10 10 6 0 10 -4 10 -10z m-192 -45 c-2 -6 -9 -9 -15 -9 -7 1 -13
-2 -13 -8 0 -5 -5 -6 -11 -3 -6 5 -4 12 8 21 20 15 36 14 31 -1z m2165 8 c-7
-2 -19 -2 -25 0 -7 3 -2 5 12 5 14 0 19 -2 13 -5z m-1763 -18 c11 -13 8 -15
-14 -15 -16 0 -26 5 -26 15 0 8 6 15 14 15 7 0 19 -7 26 -15z m2150 5 c0 -5
-4 -10 -10 -10 -5 0 -10 5 -10 10 0 6 5 10 10 10 6 0 10 -4 10 -10z m-2410
-10 c0 -5 -7 -10 -15 -10 -8 0 -15 -5 -15 -11 0 -5 -4 -7 -10 -4 -15 10 -12
23 8 28 29 8 32 7 32 -3z m-62 -21 c17 -26 11 -32 -22 -23 -27 6 -35 29 -13
37 20 9 22 8 35 -14z m-74 -20 c-3 -5 -10 -7 -15 -3 -5 3 -7 10 -3 15 3 5 10
7 15 3 5 -3 7 -10 3 -15z m265 5 c46 -10 37 -20 -14 -16 -25 2 -45 8 -45 13 0
11 16 11 59 3z m-108 -33 c-11 -11 -37 -22 -58 -25 -21 -3 -29 -3 -18 0 11 4
27 12 35 19 15 12 37 23 53 24 4 1 -2 -8 -12 -18z m-115 -30 c-6 -10 -15 -9
-53 6 -14 5 -12 8 12 13 32 7 51 -2 41 -19z m257 -16 c14 -20 15 -25 4 -25 -8
0 -17 7 -21 15 -3 8 -9 15 -13 14 -17 -3 -24 1 -18 11 10 17 29 11 48 -15z
m-168 -14 c-16 -14 -63 -22 -70 -12 -5 9 18 17 60 20 11 0 15 -3 10 -8z m-105
-10 c0 -14 -18 -23 -30 -16 -6 4 -8 11 -5 16 8 12 35 12 35 0z m266 -58 c-10
-10 -19 5 -10 18 6 11 8 11 12 0 2 -7 1 -15 -2 -18z"/>
<path d="M7372 1945 c-7 -14 -12 -28 -12 -30 0 -10 29 -4 36 7 5 7 3 8 -6 3
-10 -6 -11 -2 -6 19 8 33 3 34 -12 1z"/>
<path d="M8675 2200 c28 -12 37 -12 30 0 -3 6 -16 10 -28 9 -21 0 -21 -1 -2
-9z"/>
<path d="M5031 2154 c0 -11 3 -14 6 -6 3 7 2 16 -1 19 -3 4 -6 -2 -5 -13z"/>
<path d="M9060 2030 c0 -5 5 -10 10 -10 6 0 10 5 10 10 0 6 -4 10 -10 10 -5 0
-10 -4 -10 -10z"/>
<path d="M5077 2013 c-11 -10 -8 -53 3 -53 6 0 10 6 10 14 0 8 3 21 6 30 6 16
-7 22 -19 9z"/>
<path d="M9176 1971 c-3 -5 1 -11 9 -15 8 -3 15 -1 15 4 0 13 -18 22 -24 11z"/>
<path d="M9020 1875 c0 -8 5 -15 10 -15 6 0 10 7 10 15 0 8 -4 15 -10 15 -5 0
-10 -7 -10 -15z"/>
<path d="M9390 1775 c0 -17 -9 -19 -30 -6 -8 6 -18 7 -23 4 -6 -3 3 -11 18
-17 19 -8 29 -20 31 -36 1 -14 5 -36 8 -50 3 -14 4 -19 0 -12 -3 6 -11 12 -17
12 -6 0 -19 7 -29 17 -11 10 -18 12 -18 4 0 -6 7 -14 15 -17 21 -8 19 -23 -7
-43 -24 -20 -19 -55 7 -45 9 4 15 1 15 -9 0 -8 7 -17 15 -21 8 -3 15 -10 15
-15 0 -6 -7 -7 -17 -4 -10 4 -14 2 -10 -4 4 -6 0 -14 -9 -17 -22 -9 -24 -8
-24 9 0 23 -26 18 -54 -10 -17 -16 -36 -25 -58 -25 -30 0 -31 -1 -16 -16 14
-14 20 -15 47 -3 17 8 31 20 31 28 0 11 4 11 18 -2 10 -10 25 -17 33 -17 11
-1 11 -3 -2 -13 -9 -7 -14 -18 -12 -24 3 -7 0 -13 -6 -13 -6 0 -10 3 -10 8 1
4 1 15 0 25 -1 20 -21 23 -21 3 0 -9 -7 -12 -20 -9 -13 4 -20 0 -20 -10 0 -15
-35 -27 -58 -19 -17 5 -15 22 3 22 20 0 19 7 -4 31 -11 12 -28 19 -42 17 -31
-4 -35 -24 -7 -31 22 -6 23 -7 3 -22 -11 -9 -15 -14 -9 -11 21 10 35 -19 24
-49 -9 -23 -7 -30 7 -40 10 -8 15 -17 10 -21 -4 -4 -13 1 -20 11 -8 10 -19 16
-25 14 -7 -2 2 -18 20 -38 l32 -34 -27 7 c-31 7 -35 -7 -12 -38 19 -26 19 -50
1 -43 -11 4 -13 1 -9 -10 5 -13 1 -15 -19 -11 -21 4 -25 2 -21 -11 4 -9 10
-21 14 -27 5 -6 6 -14 2 -17 -3 -4 -1 -7 5 -7 7 0 12 -13 12 -30 0 -22 4 -28
15 -24 25 10 17 -22 -11 -41 -19 -12 -23 -20 -15 -29 13 -15 4 -26 -21 -26
-17 0 -17 -1 1 -19 12 -12 27 -17 40 -14 12 3 21 1 21 -6 0 -6 11 -11 25 -11
22 0 30 -9 26 -32 0 -5 6 -8 15 -8 8 0 13 4 10 9 -9 14 23 22 43 10 10 -7 24
-32 31 -58 l13 -46 6 34 c3 19 13 37 21 40 10 4 15 21 16 51 2 87 4 95 25 108
20 13 21 12 14 -20 -4 -18 -15 -38 -24 -45 -14 -12 -14 -12 3 -6 19 6 19 5 3
-17 -9 -14 -17 -30 -17 -37 0 -21 27 -15 33 7 3 11 16 24 29 29 18 8 19 10 5
10 -14 1 -17 6 -11 24 3 12 11 24 16 25 5 2 4 10 -3 18 -8 9 -8 14 -1 14 6 0
25 21 43 46 21 31 34 42 39 34 4 -7 13 -9 20 -5 16 10 -25 47 -47 43 -9 -2
-21 -16 -27 -33 -8 -22 -16 -29 -32 -27 -15 2 -23 -3 -27 -17 -5 -21 -37 -30
-37 -11 0 22 39 53 59 47 12 -3 21 -1 21 3 0 5 3 17 6 27 4 14 4 15 -4 4 -14
-20 -34 -4 -23 17 6 11 6 24 0 35 -8 13 -6 19 6 23 11 5 13 10 5 19 -7 9 -6
16 4 24 14 12 32 0 19 -12 -9 -10 -11 -77 -1 -83 4 -3 8 2 8 10 0 18 33 29 63
21 19 -5 20 -4 5 5 -24 15 -23 32 3 53 18 16 19 20 6 35 -19 23 -29 52 -17 52
6 0 10 6 10 14 0 8 6 16 13 19 9 3 9 7 0 17 -9 10 -9 18 -1 33 9 17 8 19 -7
13 -29 -11 -36 4 -15 35 22 30 20 49 -6 49 -8 0 -14 5 -14 10 0 14 38 12 43
-2 2 -7 8 -10 11 -6 4 3 -2 16 -13 27 -11 11 -18 27 -15 34 8 22 -14 67 -33
67 -17 -1 -16 -2 1 -15 26 -20 13 -30 -25 -19 -29 9 -39 32 -11 26 8 -2 12 0
10 5 -2 4 -10 22 -17 39 -7 18 -21 34 -31 37 -15 4 -18 12 -15 36 2 17 -1 31
-6 31 -5 0 -9 -7 -9 -15z m110 -191 c0 -8 -4 -12 -10 -9 -5 3 -10 10 -10 16 0
5 5 9 10 9 6 0 10 -7 10 -16z m-30 -40 c0 -8 -4 -14 -10 -14 -5 0 -10 9 -10
21 0 11 5 17 10 14 6 -3 10 -13 10 -21z m10 -98 c0 -2 -9 -6 -20 -9 -11 -3
-20 -1 -20 4 0 5 9 9 20 9 11 0 20 -2 20 -4z m45 -73 c-7 -17 -8 -17 -15 2 -9
24 -2 41 12 27 6 -6 7 -19 3 -29z m-275 9 c0 -9 -71 -25 -78 -17 -2 2 -2 8 1
12 8 12 77 16 77 5z m240 -162 c0 -5 -2 -10 -4 -10 -3 0 -8 5 -11 10 -3 6 -1
10 4 10 6 0 11 -4 11 -10z m-120 -50 c-13 -8 -12 -11 4 -23 19 -14 19 -15 1
-33 -13 -13 -17 -14 -13 -4 3 8 1 23 -4 33 -10 20 -3 37 15 37 7 0 6 -4 -3
-10z m-175 -91 c12 -19 -5 -23 -22 -6 -16 16 -16 17 -1 17 9 0 20 -5 23 -11z
m235 -29 c0 -5 -4 -10 -10 -10 -5 0 -10 5 -10 10 0 6 5 10 10 10 6 0 10 -4 10
-10z m-140 -30 c0 -5 -4 -10 -10 -10 -5 0 -10 5 -10 10 0 6 5 10 10 10 6 0 10
-4 10 -10z m-10 -45 c5 3 7 0 4 -9 -4 -12 -19 -14 -66 -10 -33 2 -65 7 -69 10
-17 10 -9 26 11 21 11 -3 20 0 21 6 0 8 2 8 6 0 7 -20 43 -16 43 5 1 14 4 13
20 -6 11 -13 24 -21 30 -17z m65 25 c3 -5 1 -10 -4 -10 -6 0 -11 5 -11 10 0 6
2 10 4 10 3 0 8 -4 11 -10z m-22 -60 c-5 -19 -23 -29 -23 -12 0 7 20 32 26 32
1 0 0 -9 -3 -20z"/>
<path d="M9120 1754 c0 -14 4 -23 10 -19 6 4 8 11 5 16 -4 5 -1 9 5 9 6 0 8 5
5 10 -11 19 -25 10 -25 -16z"/>
<path d="M5167 1743 c-10 -9 -9 -23 2 -23 5 0 11 7 15 15 5 15 -5 20 -17 8z"/>
<path d="M9160 1731 c0 -10 9 -21 20 -24 11 -3 20 -3 20 -1 0 2 -9 13 -20 24
-19 19 -20 19 -20 1z"/>
<path d="M9351 1714 c0 -11 3 -14 6 -6 3 7 2 16 -1 19 -3 4 -6 -2 -5 -13z"/>
<path d="M7356 1703 c-6 -14 -5 -15 5 -6 7 7 10 15 7 18 -3 3 -9 -2 -12 -12z"/>
<path d="M9460 1704 c0 -16 9 -18 28 -5 10 6 9 10 -7 14 -14 3 -21 0 -21 -9z"/>
<path d="M9210 1695 c-6 -8 -10 -19 -8 -25 2 -6 11 -2 20 9 10 11 13 23 9 26
-5 2 -14 -2 -21 -10z"/>
<path d="M9275 1700 c-3 -5 -1 -10 4 -10 6 0 11 5 11 10 0 6 -2 10 -4 10 -3 0
-8 -4 -11 -10z"/>
<path d="M6500 1690 c0 -5 7 -10 15 -10 8 0 15 5 15 10 0 6 -7 10 -15 10 -8 0
-15 -4 -15 -10z"/>
<path d="M8380 1660 c0 -5 9 -10 21 -10 11 0 17 5 14 10 -3 6 -13 10 -21 10
-8 0 -14 -4 -14 -10z"/>
<path d="M9295 1650 c-18 -8 -17 -9 8 -9 15 -1 27 4 27 9 0 12 -8 12 -35 0z"/>
<path d="M7400 1624 c0 -9 8 -23 18 -30 21 -16 32 -17 32 -4 0 6 -6 9 -12 8
-7 -2 -14 7 -16 20 -4 25 -22 30 -22 6z"/>
<path d="M7138 1611 c-9 -10 -22 -21 -29 -23 -8 -3 -10 -9 -6 -14 4 -5 11 -3
15 3 8 13 70 12 91 -1 6 -4 11 -2 11 4 0 15 -29 44 -37 36 -3 -3 -11 -2 -18 4
-7 6 -16 3 -27 -9z"/>
<path d="M6469 1598 c-11 -21 -11 -22 4 -10 9 8 21 11 27 7 5 -3 10 1 10 9 0
24 -28 19 -41 -6z"/>
<path d="M7036 1604 c-9 -25 -7 -34 8 -34 22 0 26 13 11 33 -11 16 -13 16 -19
1z"/>
<path d="M8880 1585 c0 -9 6 -12 15 -9 8 4 12 10 9 15 -8 14 -24 10 -24 -6z"/>
<path d="M8130 1579 c0 -5 5 -7 10 -4 6 3 10 8 10 11 0 2 -4 4 -10 4 -5 0 -10
-5 -10 -11z"/>
<path d="M8235 1580 c-3 -5 -1 -10 4 -10 6 0 11 5 11 10 0 6 -2 10 -4 10 -3 0
-8 -4 -11 -10z"/>
<path d="M7746 1573 c-11 -11 -6 -23 9 -23 8 0 15 4 15 9 0 13 -16 22 -24 14z"/>
<path d="M7550 1540 c0 -5 5 -10 10 -10 6 0 10 5 10 10 0 6 -4 10 -10 10 -5 0
-10 -4 -10 -10z"/>
<path d="M9124 1536 c-8 -21 4 -35 15 -18 7 11 38 12 86 2 17 -4 55 12 55 22
0 6 -10 7 -22 3 -25 -7 -25 -7 -85 1 -34 5 -44 3 -49 -10z"/>
<path d="M6992 1519 c-27 -10 -21 -29 10 -29 13 0 18 5 15 13 -4 10 2 13 20 9
18 -3 24 -1 19 7 -8 13 -32 13 -64 0z"/>
<path d="M7075 1520 c-8 -12 20 -24 35 -15 5 3 10 10 10 16 0 12 -37 12 -45
-1z"/>
<path d="M8554 1505 c-10 -8 -14 -14 -9 -15 15 0 40 18 34 24 -3 3 -14 -1 -25
-9z"/>
<path d="M7250 1480 c0 -5 14 -10 31 -10 17 0 28 4 24 10 -3 6 -17 10 -31 10
-13 0 -24 -4 -24 -10z"/>
<path d="M8720 1479 c0 -5 5 -7 10 -4 6 3 10 8 10 11 0 2 -4 4 -10 4 -5 0 -10
-5 -10 -11z"/>
<path d="M7328 1463 c6 -2 18 -2 25 0 6 3 1 5 -13 5 -14 0 -19 -2 -12 -5z"/>
<path d="M7465 1440 c3 -5 13 -10 21 -10 8 0 14 5 14 10 0 6 -9 10 -21 10 -11
0 -17 -4 -14 -10z"/>
<path d="M7002 1428 c-7 -7 -12 -18 -12 -25 0 -7 -7 -13 -15 -13 -8 0 -15 -9
-15 -20 0 -11 -6 -21 -12 -21 -7 -1 -23 -3 -34 -4 -12 -1 -43 -16 -68 -34 -51
-34 -85 -42 -48 -12 12 11 22 22 22 26 0 4 -7 2 -15 -5 -8 -7 -15 -9 -15 -6 0
10 -44 -15 -53 -30 -4 -8 -14 -14 -22 -14 -15 0 -45 -27 -45 -41 0 -5 7 -9 15
-9 8 0 15 4 15 8 0 4 14 13 30 19 29 11 30 10 24 -9 -5 -17 -3 -19 18 -13 12
4 30 14 39 21 8 8 19 14 24 14 5 0 18 8 29 18 16 13 18 13 8 1 -6 -9 -9 -19
-5 -22 12 -13 21 -7 27 18 6 24 26 36 26 15 0 -12 57 -12 85 0 14 6 16 9 5 10
-8 1 -19 3 -25 5 -5 1 -19 3 -30 4 -19 1 -18 3 5 21 21 16 27 17 36 5 14 -19
64 -31 64 -15 0 7 -7 10 -15 6 -13 -4 -14 -2 -5 14 6 11 18 20 27 20 13 0 13
3 3 15 -15 18 -30 19 -30 3 0 -7 -11 -14 -25 -14 -29 -2 -31 4 -11 32 11 15
24 20 48 18 18 -2 24 -1 13 2 -11 3 -24 10 -29 15 -13 12 -20 11 -34 -3z"/>
<path d="M9040 1410 c0 -5 5 -10 10 -10 6 0 10 5 10 10 0 6 -4 10 -10 10 -5 0
-10 -4 -10 -10z"/>
<path d="M9088 1413 c6 -2 18 -2 25 0 6 3 1 5 -13 5 -14 0 -19 -2 -12 -5z"/>
<path d="M8650 1390 c-18 -12 -2 -12 25 0 13 6 15 9 5 9 -8 0 -22 -4 -30 -9z"/>
<path d="M7120 1381 c0 -6 -8 -11 -17 -11 -13 0 -14 -3 -6 -11 9 -9 16 -8 27
4 10 10 12 18 6 22 -5 3 -10 1 -10 -4z"/>
<path d="M8960 1381 c0 -5 7 -11 15 -15 8 -3 15 -1 15 3 0 5 -7 11 -15 15 -8
3 -15 1 -15 -3z"/>
<path d="M9111 1381 c-8 -5 -20 -7 -28 -4 -7 3 -13 0 -13 -6 0 -6 14 -11 30
-11 20 0 30 5 30 15 0 17 0 18 -19 6z"/>
<path d="M8840 1360 c-12 -8 -9 -10 13 -10 15 0 27 5 27 10 0 13 -20 13 -40 0z"/>
<path d="M6516 1341 c-4 -5 -2 -12 3 -15 5 -4 12 -2 15 3 4 5 2 12 -3 15 -5 4
-12 2 -15 -3z"/>
<path d="M8515 1330 c-19 -8 -19 -9 3 -9 12 -1 22 4 22 9 0 6 -1 10 -2 9 -2 0
-12 -4 -23 -9z"/>
<path d="M9530 1320 c0 -5 5 -10 10 -10 6 0 10 5 10 10 0 6 -4 10 -10 10 -5 0
-10 -4 -10 -10z"/>
<path d="M7211 1301 c-7 -5 -12 -14 -10 -20 3 -6 9 -7 18 -2 7 5 12 14 10 20
-3 6 -9 7 -18 2z"/>
<path d="M6645 1269 c-11 -17 1 -21 15 -4 8 9 8 15 2 15 -6 0 -14 -5 -17 -11z"/>
<path d="M9050 1270 c-12 -8 -11 -10 8 -10 12 0 22 5 22 10 0 13 -11 13 -30 0z"/>
<path d="M9600 1244 c0 -8 5 -12 10 -9 6 3 10 10 10 16 0 5 -4 9 -10 9 -5 0
-10 -7 -10 -16z"/>
<path d="M6840 1235 c0 -8 5 -15 10 -15 6 0 10 7 10 15 0 8 -4 15 -10 15 -5 0
-10 -7 -10 -15z"/>
<path d="M6895 1219 c-4 -6 -5 -12 -2 -15 2 -3 7 2 10 11 7 17 1 20 -8 4z"/>
<path d="M4665 1210 c-3 -5 -1 -10 4 -10 6 0 11 5 11 10 0 6 -2 10 -4 10 -3 0
-8 -4 -11 -10z"/>
<path d="M6617 1206 c-6 -16 16 -40 26 -29 4 3 7 15 7 25 0 21 -25 24 -33 4z"/>
<path d="M8540 1200 c0 -5 5 -10 10 -10 6 0 10 5 10 10 0 6 -4 10 -10 10 -5 0
-10 -4 -10 -10z"/>
<path d="M9485 1180 c3 -5 8 -10 11 -10 2 0 4 5 4 10 0 6 -5 10 -11 10 -5 0
-7 -4 -4 -10z"/>
<path d="M7040 1160 c0 -5 5 -10 11 -10 5 0 7 5 4 10 -3 6 -8 10 -11 10 -2 0
-4 -4 -4 -10z"/>
<path d="M4680 1029 c0 -5 5 -7 10 -4 6 3 10 8 10 11 0 2 -4 4 -10 4 -5 0 -10
-5 -10 -11z"/>
<path d="M9485 1030 c-3 -5 -1 -10 4 -10 6 0 11 5 11 10 0 6 -2 10 -4 10 -3 0
-8 -4 -11 -10z"/>
<path d="M9018 1023 c7 -3 16 -2 19 1 4 3 -2 6 -13 5 -11 0 -14 -3 -6 -6z"/>
<path d="M9445 970 c-3 -5 1 -10 9 -10 9 0 16 -4 16 -10 0 -5 7 -10 15 -10 8
0 15 5 15 10 0 6 -7 10 -15 10 -8 0 -15 5 -15 10 0 6 -4 10 -9 10 -6 0 -13 -4
-16 -10z"/>
<path d="M4920 961 c0 -5 8 -12 18 -16 16 -6 16 -7 0 -19 -17 -12 -17 -14 3
-32 l21 -19 -24 -6 c-16 -4 -22 -11 -20 -25 6 -36 11 -44 34 -44 16 0 19 -3
10 -9 -11 -7 -11 -11 0 -22 21 -21 29 -49 15 -50 -7 0 -2 -5 11 -11 29 -15 28
-28 -3 -28 -31 0 -32 -13 -2 -28 l22 -11 -23 0 c-20 -1 -21 -4 -11 -22 6 -12
8 -30 5 -42 -7 -26 10 -57 32 -58 12 0 9 -3 -8 -10 -19 -8 -21 -12 -11 -18 9
-6 11 -18 7 -36 -6 -22 -4 -26 8 -22 9 4 16 2 16 -4 0 -12 57 -69 70 -69 6 0
10 -5 10 -11 0 -17 41 -50 52 -43 6 4 5 10 -3 15 -10 6 -10 9 -2 9 19 0 26
-20 13 -35 -10 -12 -9 -15 9 -15 21 0 26 -15 15 -44 -5 -14 -8 -14 -30 1 -13
8 -24 22 -24 29 0 8 -6 14 -14 14 -8 0 -16 6 -19 13 -2 6 -4 -19 -5 -57 -2
-101 -17 -111 -71 -48 -22 27 -41 54 -41 59 0 5 -8 16 -17 24 -34 31 -51 57
-58 90 -4 19 -12 39 -17 46 -6 7 -14 27 -18 45 -5 18 -18 58 -29 88 -12 30
-21 63 -21 73 0 10 -6 28 -14 40 -8 12 -17 38 -21 57 -9 43 -33 83 -45 75 -6
-4 -7 6 -4 22 3 15 -3 51 -14 80 -17 48 -19 50 -31 31 -7 -11 -8 -17 -2 -14
16 10 24 -13 10 -30 -10 -13 -10 -17 2 -24 18 -12 22 -61 6 -73 -8 -6 -6 -7 5
-3 13 4 20 -3 26 -27 9 -30 3 -65 -6 -39 -2 7 -8 12 -14 12 -6 0 -5 -7 3 -16
8 -9 12 -27 11 -41 -2 -13 1 -38 6 -56 5 -17 16 -65 23 -106 11 -67 11 -74 -4
-83 -16 -8 -16 -11 5 -28 26 -20 46 -16 27 6 -7 9 -8 14 -1 14 17 0 25 -20 14
-33 -14 -16 -17 -47 -8 -79 4 -14 3 -34 -2 -45 -12 -22 -5 -43 14 -43 8 0 14
-10 14 -21 0 -12 8 -28 18 -35 15 -12 15 -15 2 -23 -12 -9 -10 -15 13 -39 15
-15 27 -36 27 -45 0 -9 7 -17 16 -17 10 0 14 -5 10 -15 -5 -14 11 -15 127 -13
123 3 132 4 136 23 5 29 40 75 56 75 8 0 19 -17 25 -37 29 -106 47 -78 31 50
-6 56 -17 145 -22 197 -6 52 -18 115 -28 140 -24 59 -32 120 -34 253 -2 96 -4
110 -22 123 -14 11 -17 17 -8 22 7 4 10 17 6 30 -7 27 -12 27 -29 5 -13 -17
-13 -17 -14 -1 0 11 -5 15 -15 12 -10 -4 -15 0 -15 10 0 22 -50 42 -61 24 -6
-9 -12 -8 -27 5 -10 9 -28 17 -40 17 -12 0 -22 5 -22 10 0 6 -7 10 -15 10 -8
0 -15 -4 -15 -9z m95 -409 c-8 -8 -25 10 -19 20 4 6 9 5 15 -3 4 -7 6 -15 4
-17z"/>
<path d="M8855 951 c-6 -11 9 -23 19 -14 9 9 7 23 -3 23 -6 0 -12 -4 -16 -9z"/>
<path d="M9067 924 c-4 -4 -2 -13 4 -21 14 -17 52 -17 46 0 -2 6 -10 11 -17 9
-7 -2 -16 2 -20 8 -3 5 -9 7 -13 4z"/>
<path d="M9142 872 c4 -25 0 -36 -13 -43 -15 -7 -17 -6 -13 6 4 11 2 13 -9 10
-23 -9 -19 -55 5 -55 10 0 16 4 13 10 -3 5 6 12 20 16 23 6 25 10 19 38 -9 45
-28 60 -22 18z"/>
<path d="M9396 865 c-3 -8 -1 -15 4 -15 13 0 22 18 11 24 -5 3 -11 -1 -15 -9z"/>
<path d="M9565 840 c-3 -5 -1 -10 4 -10 6 0 11 5 11 10 0 6 -2 10 -4 10 -3 0
-8 -4 -11 -10z"/>
<path d="M9396 797 c3 -9 1 -24 -6 -32 -10 -13 -9 -15 9 -15 19 0 21 4 16 23
-4 12 -12 27 -17 32 -6 6 -7 4 -2 -8z"/>
<path d="M9240 789 c0 -5 5 -7 10 -4 6 3 10 8 10 11 0 2 -4 4 -10 4 -5 0 -10
-5 -10 -11z"/>
<path d="M9361 714 c0 -11 3 -14 6 -6 3 7 2 16 -1 19 -3 4 -6 -2 -5 -13z"/>
<path d="M9410 711 c0 -12 29 -35 36 -28 11 10 -5 37 -21 37 -8 0 -15 -4 -15
-9z"/>
<path d="M9377 643 c-4 -3 -7 -17 -7 -30 0 -12 -4 -23 -10 -23 -5 0 -10 -4
-10 -10 0 -17 20 -11 26 8 3 9 10 25 15 34 5 10 9 20 9 23 0 7 -15 6 -23 -2z"/>
<path d="M9041 626 c-8 -10 -9 -16 -1 -21 5 -3 13 1 16 10 9 22 -1 29 -15 11z"/>
<path d="M9423 630 c-13 -5 -23 -12 -23 -15 0 -9 16 -5 36 10 22 16 19 18 -13
5z"/>
<path d="M9465 630 c-8 -13 4 -32 16 -25 12 8 12 35 0 35 -6 0 -13 -4 -16 -10z"/>
<path d="M9275 600 c3 -5 10 -10 16 -10 5 0 9 5 9 10 0 6 -7 10 -16 10 -8 0
-12 -4 -9 -10z"/>
<path d="M9455 580 c-3 -5 -15 -10 -26 -10 -18 0 -26 -20 -13 -33 12 -11 63
26 64 46 0 10 -18 9 -25 -3z"/>
<path d="M9208 553 c7 -3 16 -2 19 1 4 3 -2 6 -13 5 -11 0 -14 -3 -6 -6z"/>
<path d="M9301 544 c0 -11 3 -14 6 -6 3 7 2 16 -1 19 -3 4 -6 -2 -5 -13z"/>
<path d="M9380 535 c-8 -9 -8 -15 -2 -15 12 0 26 19 19 26 -2 2 -10 -2 -17
-11z"/>
<path d="M9345 530 c3 -5 8 -10 11 -10 2 0 4 5 4 10 0 6 -5 10 -11 10 -5 0 -7
-4 -4 -10z"/>
<path d="M9265 520 c3 -5 8 -10 11 -10 2 0 4 5 4 10 0 6 -5 10 -11 10 -5 0 -7
-4 -4 -10z"/>
<path d="M9465 510 c3 -5 8 -10 11 -10 2 0 4 5 4 10 0 6 -5 10 -11 10 -5 0 -7
-4 -4 -10z"/>
<path d="M9309 494 c-12 -14 -11 -16 5 -13 11 2 21 10 24 17 5 17 -13 15 -29
-4z"/>
<path d="M9405 500 c-3 -5 1 -10 9 -10 9 0 16 5 16 10 0 6 -4 10 -9 10 -6 0
-13 -4 -16 -10z"/>
<path d="M9436 474 c-8 -22 1 -31 16 -16 9 9 9 15 1 23 -7 7 -12 5 -17 -7z"/>
<path d="M9265 460 c-3 -5 1 -10 9 -10 9 0 16 5 16 10 0 6 -4 10 -9 10 -6 0
-13 -4 -16 -10z"/>
<path d="M9212 449 c2 -7 10 -15 17 -17 8 -3 12 1 9 9 -2 7 -10 15 -17 17 -8
3 -12 -1 -9 -9z"/>
<path d="M9326 435 c-11 -8 -17 -18 -13 -22 9 -8 57 14 57 27 0 14 -22 12 -44
-5z"/>
<path d="M9460 400 c0 -5 5 -10 11 -10 6 0 9 -6 7 -12 -3 -7 -12 -13 -21 -13
-9 0 -25 -10 -37 -22 -26 -28 -16 -29 38 -3 46 22 48 26 28 53 -15 19 -26 22
-26 7z"/>
<path d="M9247 393 c-13 -12 -7 -23 13 -23 11 0 20 7 20 15 0 15 -21 21 -33 8z"/>
<path d="M9220 319 c0 -5 5 -7 10 -4 6 3 10 8 10 11 0 2 -4 4 -10 4 -5 0 -10
-5 -10 -11z"/>
<path d="M9447 304 c6 -15 23 -19 23 -5 0 5 -7 11 -14 14 -10 4 -13 1 -9 -9z"/>
<path d="M9520 296 c0 -8 5 -18 10 -21 6 -3 10 3 10 14 0 12 -4 21 -10 21 -5
0 -10 -6 -10 -14z"/>
<path d="M9396 275 c4 -8 10 -15 15 -15 4 0 6 7 3 15 -4 8 -10 15 -15 15 -4 0
-6 -7 -3 -15z"/>
<path d="M9444 245 c-1 -14 2 -25 6 -25 11 0 21 30 14 41 -10 16 -19 9 -20
-16z"/>
<path d="M9515 210 c-3 -5 -1 -10 4 -10 6 0 11 5 11 10 0 6 -2 10 -4 10 -3 0
-8 -4 -11 -10z"/>
<path d="M9420 195 c-11 -13 -10 -14 4 -9 9 3 16 10 16 15 0 13 -6 11 -20 -6z"/>
<path d="M9544 185 c-9 -22 1 -29 15 -11 8 10 9 16 1 21 -5 3 -13 -1 -16 -10z"/>
<path d="M9425 131 c-3 -5 -1 -12 5 -16 5 -3 10 1 10 9 0 18 -6 21 -15 7z"/>
<path d="M9421 64 c0 -11 3 -14 6 -6 3 7 2 16 -1 19 -3 4 -6 -2 -5 -13z"/>
<path d="M9530 64 c0 -14 3 -14 15 -4 8 7 15 14 15 16 0 2 -7 4 -15 4 -8 0
-15 -7 -15 -16z"/>
<path d="M9540 10 c0 -5 7 -10 16 -10 8 0 12 5 9 10 -3 6 -10 10 -16 10 -5 0
-9 -4 -9 -10z"/>
</g>
</svg>
