<?xml version="1.0" encoding="utf-8"?>
<!-- Generator: Adobe Illustrator 16.0.0, SVG Export Plug-In . SVG Version: 6.00 Build 0)  -->
<!DOCTYPE svg PUBLIC "-//W3C//DTD SVG 1.1//EN" "http://www.w3.org/Graphics/SVG/1.1/DTD/svg11.dtd">
<svg version="1.1" id="Layer_1" xmlns="http://www.w3.org/2000/svg" xmlns:xlink="http://www.w3.org/1999/xlink" x="0px" y="0px"
	 width="100px" height="34px" viewBox="0 0 100 34" enable-background="new 0 0 100 34" xml:space="preserve">
<g>
	<g>
		<polygon fill="#FFFFFF" points="80.65,22.75 80.047,27.01 79.799,27.01 79.462,22.875 78.811,4 77,4 78.5,30 81.118,30 83.6,4 
			81.529,4 		"/>
		<path fill="#FFFFFF" d="M67.57,4H64v26h3.439C69.415,30,70,28.84,70,27V6.766C70,4.924,69.545,4,67.57,4z M68,27.462
			C68,28.785,68.059,29,67,29h-1V5h1c1.059,0,1,0.216,1,1.538V27.462z"/>
		<polygon fill="#FFFFFF" points="72,30 76,30 76,29 74,29 74,16 75.341,16 75.341,15 74,15 74,5 76,5 76,4 72,4 		"/>
		<path fill="#FFFFFF" d="M18,4l-2,26h1.525l0.736-8H20l0.226,8h2.076L20.85,4H18z M18.333,21l0.599-11.745l0.298-3.156h0.57
			L20,9.255V21H18.333z"/>
		<polygon fill="#FFFFFF" points="43,4 41,4 41,30 45,30 45,29 43,29 		"/>
		<polygon fill="#FFFFFF" points="46,30 50,30 50,29 48,29 48,16 49.326,16 49.326,15 48,15 48,5 49.989,5 49.989,4 46,4 		"/>
		<polygon fill="#FFFFFF" points="30.713,5 32.379,5 32.379,30 34.24,30 34.24,5 35.841,5 35.841,4 30.713,4 		"/>
		<path fill="#FFFFFF" d="M36.617,27.939c-0.669,0-1.206,0.533-1.206,1.191c0,0.663,0.537,1.193,1.206,1.193
			c0.667,0,1.205-0.531,1.205-1.193C37.822,28.473,37.285,27.939,36.617,27.939z"/>
		<path fill="#FFFFFF" d="M55.709,4H51v26h3.939c1.25,0,2.045-1.001,2.061-2.094V17.631c0-1.255-0.219-1.569-0.667-1.822
			c0-0.094,0-0.457,0-0.564C56.885,14.97,57,14.689,57,13.812v-8.23C57,4.661,56.652,4,55.709,4z M55,28.104
			c-0.012,0.689-0.057,0.832-0.609,0.832h-1.404L53,16h1.406C54.958,16,55,16.3,55,17.422V28.104z M55,13.641
			c0,1.091,0.029,1.303-0.55,1.359H53L52.986,5h1.447C54.9,5,55,5.216,55,5.792V13.641z"/>
		<path fill="#FFFFFF" d="M27.594,4H24v26h2V18h1.331C27.941,18,28,18.283,28,19v11h2l-0.011-9.891c0-1.424,0.073-1.793-0.724-2.258
			c0-0.309,0-0.504,0-0.604C29.794,17.191,30,17.123,30,15.714V7C30,5.158,29.554,4,27.594,4z M28,16c0,0.805,0.019,1-0.636,1H26V5
			l0.839-0.016C27.883,5,28,5.677,28,7V16z"/>
		<polygon fill="#FFFFFF" points="59,30 63,30 63,29 61,29 61,16 62.336,16 62.336,15 61,15 61,5 63,5 63,4 59,4 		"/>
	</g>
</g>
</svg>
